<svg width="438" height="960" viewBox="0 0 438 960" fill="none" xmlns="http://www.w3.org/2000/svg">
<path d="M0.806641 960V24.7168C0.806641 22.7311 1.52279 21.0384 2.95508 19.6387C4.35482 18.2064 6.0638 17.4902 8.08203 17.4902H26.1973C28.1829 17.4902 29.8919 18.2064 31.3242 19.6387C32.724 21.0384 33.4238 22.7311 33.4238 24.7168V90H18.9219V65.6836H15.3086V960H0.806641ZM18.9219 51.1816V31.9922H15.3086V51.1816H18.9219Z" fill="#0B91A6"/>
<path d="M39.0371 17.4902H64.4277C66.4134 17.4902 68.1224 18.2064 69.5547 19.6387C70.9544 21.0384 71.6543 22.7311 71.6543 24.7168V43.4668C71.6543 45.485 70.9544 47.194 69.5547 48.5938L64.4277 53.7695L69.5547 58.8965C70.9544 60.2962 71.6543 62.0052 71.6543 64.0234V82.7734C71.6543 84.7591 70.9544 86.4518 69.5547 87.8516C68.1224 89.2839 66.4134 90 64.4277 90H39.0371V17.4902ZM53.5391 75.498H57.1523V60.9961H53.5391V75.498ZM57.1523 46.4941V31.9922H53.5391V46.4941H57.1523Z" fill="#0B91A6"/>
<path d="M77.2676 82.7246V24.7168C77.2676 22.7311 77.9837 21.0384 79.416 19.6387C80.8158 18.2064 82.5247 17.4902 84.543 17.4902H102.658C104.644 17.4902 106.353 18.2064 107.785 19.6387C109.185 21.0384 109.885 22.7311 109.885 24.7168V82.7246C109.885 84.7428 109.185 86.4518 107.785 87.8516C106.353 89.2839 104.644 90 102.658 90H84.543C82.5247 90 80.8158 89.2839 79.416 87.8516C77.9837 86.4518 77.2676 84.7428 77.2676 82.7246ZM95.3828 75.498V31.9922H91.7695V75.498H95.3828Z" fill="#0B91A6"/>
<path d="M115.498 17.4902H130V75.498H133.613V17.4902H148.115V82.7246C148.115 84.7428 147.415 86.4518 146.016 87.8516C144.583 89.2839 142.874 90 140.889 90H122.773C120.755 90 119.046 89.2839 117.646 87.8516C116.214 86.4518 115.498 84.7428 115.498 82.7246V17.4902Z" fill="#0B91A6"/>
<path d="M153.729 17.4902H186.346V31.9922H177.264V90H162.762V31.9922H153.729V17.4902Z" fill="#0B91A6"/>
<path d="M213.49 90V24.7168C213.49 22.7311 214.206 21.0384 215.639 19.6387C217.038 18.2064 218.747 17.4902 220.766 17.4902H238.881C240.867 17.4902 242.576 18.2064 244.008 19.6387C245.408 21.0384 246.107 22.7311 246.107 24.7168V90H231.605V65.6836H227.992V90H213.49ZM231.605 51.1816V31.9922H227.992V51.1816H231.605Z" fill="#0B91A6"/>
<path d="M251.721 53.7207V24.7168C251.721 22.7311 252.437 21.0384 253.869 19.6387C255.269 18.2064 256.978 17.4902 258.996 17.4902H277.111C279.097 17.4902 280.806 18.2064 282.238 19.6387C283.638 21.0384 284.338 22.7311 284.338 24.7168V42.6367H269.836V31.9922H266.223V46.4941H277.111C279.097 46.4941 280.806 47.2103 282.238 48.6426C283.638 50.0423 284.338 51.735 284.338 53.7207V82.7246C284.338 84.7428 283.638 86.4518 282.238 87.8516C280.806 89.2839 279.097 90 277.111 90H258.996C256.978 90 255.269 89.2839 253.869 87.8516C252.437 86.4518 251.721 84.7428 251.721 82.7246V64.8047H266.223V75.498H269.836V60.9961H258.996C256.978 60.9961 255.269 60.2799 253.869 58.8477C252.437 57.4479 251.721 55.7389 251.721 53.7207Z" fill="#0B91A6"/>
<path d="M289.951 17.4902H322.568V31.9922H313.486V90H298.984V31.9922H289.951V17.4902Z" fill="#0B91A6"/>
<path d="M342.684 17.4902V46.4941H346.297V17.4902H360.799V90H346.297V60.9961H342.684V90H328.182V17.4902H342.684Z" fill="#0B91A6"/>
<path d="M384.527 46.4941V31.9922H380.914V46.4941H384.527ZM384.527 90V60.9961H380.914V90H366.412V17.4902H391.803C393.788 17.4902 395.497 18.2064 396.93 19.6387C398.329 21.0384 399.029 22.7311 399.029 24.7168V43.4668C399.029 45.485 398.329 47.194 396.93 48.5938L391.803 53.7695L396.93 58.8965C398.329 60.2962 399.029 62.0052 399.029 64.0234V90H384.527Z" fill="#0B91A6"/>
<path d="M404.643 90V24.7168C404.643 22.7311 405.359 21.0384 406.791 19.6387C408.191 18.2064 409.9 17.4902 411.918 17.4902H430.033C432.019 17.4902 433.728 18.2064 435.16 19.6387C436.56 21.0384 437.26 22.7311 437.26 24.7168V90H422.758V65.6836H419.145V90H404.643ZM422.758 51.1816V31.9922H419.145V51.1816H422.758Z" fill="#0B91A6"/>
<circle cx="30.15" cy="4.15" r="3.735" fill="white" stroke="black" stroke-width="0.83"/>
<circle cx="154.65" cy="4.15" r="3.735" fill="white" stroke="black" stroke-width="0.83"/>
<circle cx="79.9498" cy="4.15" r="3.735" fill="white" stroke="black" stroke-width="0.83"/>
<circle cx="92.4" cy="4.15" r="3.735" fill="white" stroke="black" stroke-width="0.83"/>
<circle cx="104.85" cy="4.15" r="3.735" fill="white" stroke="black" stroke-width="0.83"/>
<circle cx="263.15" cy="4.15" r="3.735" fill="white" stroke="black" stroke-width="0.83"/>
<circle cx="387.65" cy="4.15" r="3.735" fill="white" stroke="black" stroke-width="0.83"/>
<circle cx="312.95" cy="4.15" r="3.735" fill="white" stroke="black" stroke-width="0.83"/>
<circle cx="325.4" cy="4.15" r="3.735" fill="white" stroke="black" stroke-width="0.83"/>
<circle cx="337.85" cy="4.15" r="3.735" fill="white" stroke="black" stroke-width="0.83"/>
</svg>
