<svg width="1339" height="34" viewBox="0 0 1339 34" fill="none" xmlns="http://www.w3.org/2000/svg">
<path d="M7.4262 18.6514V5.78H6.49792V18.6514H7.4262ZM0 22.8771V1.60286C0 0.388572 0.390852 0 1.61227 0H12.5073C13.7287 0 14.1195 0.388572 14.1195 1.60286V32.3971C14.1195 33.6114 13.7287 34 12.5073 34H1.61227C0.390852 34 0 33.6114 0 32.3971V25.3543H6.49792V28.22H7.4262V24.48H1.61227C0.390852 24.48 0 24.0914 0 22.8771Z" fill="black"/>
<path d="M22.2122 5.78V14.5714H23.0916V5.78H22.2122ZM22.2122 34H15.47V0H28.2215C29.4429 0 29.8338 0.388572 29.8338 1.60286V15.64C29.8338 16.8543 29.4429 17.2429 28.3681 17.2429H28.1238V17.8743H28.3681C29.4429 17.8743 29.8338 18.2629 29.8338 19.4771V34H23.0916V20.3514H22.2122V34Z" fill="black"/>
<path d="M45.5423 1.60286V32.3971C45.5423 33.6114 45.1515 34 43.9301 34H32.7908C31.5693 34 31.1785 33.6114 31.1785 32.3971V1.60286C31.1785 0.388572 31.5693 0 32.7908 0H43.9301C45.1515 0 45.5423 0.388572 45.5423 1.60286ZM37.9207 28.22H38.8001V5.78H37.9207V28.22Z" fill="black"/>
<path d="M66.1854 34H46.887V0H53.6292V28.22H54.5086V0H61.0066V28.22H61.9348V0H68.4328V31.7657C68.4328 33.4657 67.8953 34 66.1854 34Z" fill="black"/>
<path d="M148.6 18.6514V5.78H147.672V18.6514H148.6ZM141.174 22.8771V1.60286C141.174 0.388572 141.565 0 142.786 0H153.681C154.903 0 155.294 0.388572 155.294 1.60286V32.3971C155.294 33.6114 154.903 34 153.681 34H142.786C141.565 34 141.174 33.6114 141.174 32.3971V25.3543H147.672V28.22H148.6V24.48H142.786C141.565 24.48 141.174 24.0914 141.174 22.8771Z" fill="black"/>
<path d="M163.386 5.78V14.5714H164.266V5.78H163.386ZM163.386 34H156.644V0H169.396C170.617 0 171.008 0.388572 171.008 1.60286V15.64C171.008 16.8543 170.617 17.2429 169.542 17.2429H169.298V17.8743H169.542C170.617 17.8743 171.008 18.2629 171.008 19.4771V34H164.266V20.3514H163.386V34Z" fill="black"/>
<path d="M186.716 1.60286V32.3971C186.716 33.6114 186.326 34 185.104 34H173.965C172.743 34 172.353 33.6114 172.353 32.3971V1.60286C172.353 0.388572 172.743 0 173.965 0H185.104C186.326 0 186.716 0.388572 186.716 1.60286ZM179.095 28.22H179.974V5.78H179.095V28.22Z" fill="black"/>
<path d="M207.359 34H188.061V0H194.803V28.22H195.683V0H202.181V28.22H203.109V0H209.607V31.7657C209.607 33.4657 209.069 34 207.359 34Z" fill="black"/>
<path d="M289.774 18.6514V5.78H288.846V18.6514H289.774ZM282.348 22.8771V1.60286C282.348 0.388572 282.739 0 283.961 0H294.856C296.077 0 296.468 0.388572 296.468 1.60286V32.3971C296.468 33.6114 296.077 34 294.856 34H283.961C282.739 34 282.348 33.6114 282.348 32.3971V25.3543H288.846V28.22H289.774V24.48H283.961C282.739 24.48 282.348 24.0914 282.348 22.8771Z" fill="black"/>
<path d="M304.56 5.78V14.5714H305.44V5.78H304.56ZM304.56 34H297.818V0H310.57C311.791 0 312.182 0.388572 312.182 1.60286V15.64C312.182 16.8543 311.791 17.2429 310.716 17.2429H310.472V17.8743H310.716C311.791 17.8743 312.182 18.2629 312.182 19.4771V34H305.44V20.3514H304.56V34Z" fill="black"/>
<path d="M327.891 1.60286V32.3971C327.891 33.6114 327.5 34 326.278 34H315.139C313.918 34 313.527 33.6114 313.527 32.3971V1.60286C313.527 0.388572 313.918 0 315.139 0H326.278C327.5 0 327.891 0.388572 327.891 1.60286ZM320.269 28.22H321.148V5.78H320.269V28.22Z" fill="black"/>
<path d="M348.534 34H329.235V0H335.977V28.22H336.857V0H343.355V28.22H344.283V0H350.781V31.7657C350.781 33.4657 350.244 34 348.534 34Z" fill="black"/>
<path d="M430.949 18.6514V5.78H430.02V18.6514H430.949ZM423.522 22.8771V1.60286C423.522 0.388572 423.913 0 425.135 0H436.03C437.251 0 437.642 0.388572 437.642 1.60286V32.3971C437.642 33.6114 437.251 34 436.03 34H425.135C423.913 34 423.522 33.6114 423.522 32.3971V25.3543H430.02V28.22H430.949V24.48H425.135C423.913 24.48 423.522 24.0914 423.522 22.8771Z" fill="black"/>
<path d="M445.735 5.78V14.5714H446.614V5.78H445.735ZM445.735 34H438.992V0H451.744C452.965 0 453.356 0.388572 453.356 1.60286V15.64C453.356 16.8543 452.965 17.2429 451.89 17.2429H451.646V17.8743H451.89C452.965 17.8743 453.356 18.2629 453.356 19.4771V34H446.614V20.3514H445.735V34Z" fill="black"/>
<path d="M469.065 1.60286V32.3971C469.065 33.6114 468.674 34 467.452 34H456.313C455.092 34 454.701 33.6114 454.701 32.3971V1.60286C454.701 0.388572 455.092 0 456.313 0H467.452C468.674 0 469.065 0.388572 469.065 1.60286ZM461.443 28.22H462.323V5.78H461.443V28.22Z" fill="black"/>
<path d="M489.708 34H470.409V0H477.152V28.22H478.031V0H484.529V28.22H485.457V0H491.955V31.7657C491.955 33.4657 491.418 34 489.708 34Z" fill="black"/>
<path d="M572.123 18.6514V5.78H571.194V18.6514H572.123ZM564.697 22.8771V1.60286C564.697 0.388572 565.087 0 566.309 0H577.204C578.425 0 578.816 0.388572 578.816 1.60286V32.3971C578.816 33.6114 578.425 34 577.204 34H566.309C565.087 34 564.697 33.6114 564.697 32.3971V25.3543H571.194V28.22H572.123V24.48H566.309C565.087 24.48 564.697 24.0914 564.697 22.8771Z" fill="black"/>
<path d="M586.909 5.78V14.5714H587.788V5.78H586.909ZM586.909 34H580.166V0H592.918C594.139 0 594.53 0.388572 594.53 1.60286V15.64C594.53 16.8543 594.139 17.2429 593.065 17.2429H592.82V17.8743H593.065C594.139 17.8743 594.53 18.2629 594.53 19.4771V34H587.788V20.3514H586.909V34Z" fill="black"/>
<path d="M610.239 1.60286V32.3971C610.239 33.6114 609.848 34 608.627 34H597.487C596.266 34 595.875 33.6114 595.875 32.3971V1.60286C595.875 0.388572 596.266 0 597.487 0H608.627C609.848 0 610.239 0.388572 610.239 1.60286ZM602.617 28.22H603.497V5.78H602.617V28.22Z" fill="black"/>
<path d="M630.882 34H611.584V0H618.326V28.22H619.205V0H625.703V28.22H626.631V0H633.129V31.7657C633.129 33.4657 632.592 34 630.882 34Z" fill="black"/>
<path d="M713.297 18.6514V5.78H712.369V18.6514H713.297ZM705.871 22.8771V1.60286C705.871 0.388572 706.262 0 707.483 0H718.378C719.599 0 719.99 0.388572 719.99 1.60286V32.3971C719.99 33.6114 719.599 34 718.378 34H707.483C706.262 34 705.871 33.6114 705.871 32.3971V25.3543H712.369V28.22H713.297V24.48H707.483C706.262 24.48 705.871 24.0914 705.871 22.8771Z" fill="black"/>
<path d="M728.083 5.78V14.5714H728.962V5.78H728.083ZM728.083 34H721.341V0H734.092C735.314 0 735.704 0.388572 735.704 1.60286V15.64C735.704 16.8543 735.314 17.2429 734.239 17.2429H733.995V17.8743H734.239C735.314 17.8743 735.704 18.2629 735.704 19.4771V34H728.962V20.3514H728.083V34Z" fill="black"/>
<path d="M751.413 1.60286V32.3971C751.413 33.6114 751.022 34 749.801 34H738.661C737.44 34 737.049 33.6114 737.049 32.3971V1.60286C737.049 0.388572 737.44 0 738.661 0H749.801C751.022 0 751.413 0.388572 751.413 1.60286ZM743.791 28.22H744.671V5.78H743.791V28.22Z" fill="black"/>
<path d="M772.056 34H752.758V0H759.5V28.22H760.379V0H766.877V28.22H767.806V0H774.303V31.7657C774.303 33.4657 773.766 34 772.056 34Z" fill="black"/>
<path d="M854.471 18.6514V5.78H853.543V18.6514H854.471ZM847.045 22.8771V1.60286C847.045 0.388572 847.436 0 848.657 0H859.552C860.774 0 861.164 0.388572 861.164 1.60286V32.3971C861.164 33.6114 860.774 34 859.552 34H848.657C847.436 34 847.045 33.6114 847.045 32.3971V25.3543H853.543V28.22H854.471V24.48H848.657C847.436 24.48 847.045 24.0914 847.045 22.8771Z" fill="black"/>
<path d="M869.257 5.78V14.5714H870.136V5.78H869.257ZM869.257 34H862.515V0H875.266C876.488 0 876.879 0.388572 876.879 1.60286V15.64C876.879 16.8543 876.488 17.2429 875.413 17.2429H875.169V17.8743H875.413C876.488 17.8743 876.879 18.2629 876.879 19.4771V34H870.136V20.3514H869.257V34Z" fill="black"/>
<path d="M892.587 1.60286V32.3971C892.587 33.6114 892.196 34 890.975 34H879.836C878.614 34 878.223 33.6114 878.223 32.3971V1.60286C878.223 0.388572 878.614 0 879.836 0H890.975C892.196 0 892.587 0.388572 892.587 1.60286ZM884.966 28.22H885.845V5.78H884.966V28.22Z" fill="black"/>
<path d="M913.23 34H893.932V0H900.674V28.22H901.553V0H908.051V28.22H908.98V0H915.478V31.7657C915.478 33.4657 914.94 34 913.23 34Z" fill="black"/>
<path d="M995.645 18.6514V5.78H994.717V18.6514H995.645ZM988.219 22.8771V1.60286C988.219 0.388572 988.61 0 989.831 0H1000.73C1001.95 0 1002.34 0.388572 1002.34 1.60286V32.3971C1002.34 33.6114 1001.95 34 1000.73 34H989.831C988.61 34 988.219 33.6114 988.219 32.3971V25.3543H994.717V28.22H995.645V24.48H989.831C988.61 24.48 988.219 24.0914 988.219 22.8771Z" fill="black"/>
<path d="M1010.43 5.78V14.5714H1011.31V5.78H1010.43ZM1010.43 34H1003.69V0H1016.44C1017.66 0 1018.05 0.388572 1018.05 1.60286V15.64C1018.05 16.8543 1017.66 17.2429 1016.59 17.2429H1016.34V17.8743H1016.59C1017.66 17.8743 1018.05 18.2629 1018.05 19.4771V34H1011.31V20.3514H1010.43V34Z" fill="black"/>
<path d="M1033.76 1.60286V32.3971C1033.76 33.6114 1033.37 34 1032.15 34H1021.01C1019.79 34 1019.4 33.6114 1019.4 32.3971V1.60286C1019.4 0.388572 1019.79 0 1021.01 0H1032.15C1033.37 0 1033.76 0.388572 1033.76 1.60286ZM1026.14 28.22H1027.02V5.78H1026.14V28.22Z" fill="black"/>
<path d="M1054.4 34H1035.11V0H1041.85V28.22H1042.73V0H1049.23V28.22H1050.15V0H1056.65V31.7657C1056.65 33.4657 1056.11 34 1054.4 34Z" fill="black"/>
<path d="M1136.82 18.6514V5.78H1135.89V18.6514H1136.82ZM1129.39 22.8771V1.60286C1129.39 0.388572 1129.78 0 1131.01 0H1141.9C1143.12 0 1143.51 0.388572 1143.51 1.60286V32.3971C1143.51 33.6114 1143.12 34 1141.9 34H1131.01C1129.78 34 1129.39 33.6114 1129.39 32.3971V25.3543H1135.89V28.22H1136.82V24.48H1131.01C1129.78 24.48 1129.39 24.0914 1129.39 22.8771Z" fill="black"/>
<path d="M1151.61 5.78V14.5714H1152.48V5.78H1151.61ZM1151.61 34H1144.86V0H1157.61C1158.84 0 1159.23 0.388572 1159.23 1.60286V15.64C1159.23 16.8543 1158.84 17.2429 1157.76 17.2429H1157.52V17.8743H1157.76C1158.84 17.8743 1159.23 18.2629 1159.23 19.4771V34H1152.48V20.3514H1151.61V34Z" fill="black"/>
<path d="M1174.94 1.60286V32.3971C1174.94 33.6114 1174.54 34 1173.32 34H1162.18C1160.96 34 1160.57 33.6114 1160.57 32.3971V1.60286C1160.57 0.388572 1160.96 0 1162.18 0H1173.32C1174.54 0 1174.94 0.388572 1174.94 1.60286ZM1167.31 28.22H1168.19V5.78H1167.31V28.22Z" fill="black"/>
<path d="M1195.58 34H1176.28V0H1183.02V28.22H1183.9V0H1190.4V28.22H1191.33V0H1197.83V31.7657C1197.83 33.4657 1197.29 34 1195.58 34Z" fill="black"/>
<path d="M1277.99 18.6514V5.78H1277.07V18.6514H1277.99ZM1270.57 22.8771V1.60286C1270.57 0.388572 1270.96 0 1272.18 0H1283.07C1284.3 0 1284.69 0.388572 1284.69 1.60286V32.3971C1284.69 33.6114 1284.3 34 1283.07 34H1272.18C1270.96 34 1270.57 33.6114 1270.57 32.3971V25.3543H1277.07V28.22H1277.99V24.48H1272.18C1270.96 24.48 1270.57 24.0914 1270.57 22.8771Z" fill="black"/>
<path d="M1292.78 5.78V14.5714H1293.66V5.78H1292.78ZM1292.78 34H1286.04V0H1298.79C1300.01 0 1300.4 0.388572 1300.4 1.60286V15.64C1300.4 16.8543 1300.01 17.2429 1298.94 17.2429H1298.69V17.8743H1298.94C1300.01 17.8743 1300.4 18.2629 1300.4 19.4771V34H1293.66V20.3514H1292.78V34Z" fill="black"/>
<path d="M1316.11 1.60286V32.3971C1316.11 33.6114 1315.72 34 1314.5 34H1303.36C1302.14 34 1301.75 33.6114 1301.75 32.3971V1.60286C1301.75 0.388572 1302.14 0 1303.36 0H1314.5C1315.72 0 1316.11 0.388572 1316.11 1.60286ZM1308.49 28.22H1309.37V5.78H1308.49V28.22Z" fill="black"/>
<path d="M1336.75 34H1317.45V0H1324.2V28.22H1325.08V0H1331.57V28.22H1332.5V0H1339V31.7657C1339 33.4657 1338.46 34 1336.75 34Z" fill="black"/>
</svg>
