<svg width="1528" height="25" viewBox="0 0 1528 25" fill="none" xmlns="http://www.w3.org/2000/svg">
<path d="M1146 12H1528" stroke="black"/>
<circle cx="1168.65" cy="12.15" r="3.735" fill="white" stroke="black" stroke-width="0.83"/>
<circle cx="1218.45" cy="12.15" r="3.735" fill="white" stroke="black" stroke-width="0.83"/>
<circle cx="1230.9" cy="12.15" r="3.735" fill="white" stroke="black" stroke-width="0.83"/>
<circle cx="1243.35" cy="12.15" r="3.735" fill="white" stroke="black" stroke-width="0.83"/>
<circle cx="1512.15" cy="12.15" r="3.735" fill="white" stroke="black" stroke-width="0.83"/>
<circle cx="1437.45" cy="12.15" r="3.735" fill="white" stroke="black" stroke-width="0.83"/>
<circle cx="1449.9" cy="12.15" r="3.735" fill="white" stroke="black" stroke-width="0.83"/>
<circle cx="1462.35" cy="12.15" r="3.735" fill="white" stroke="black" stroke-width="0.83"/>
<circle cx="1318.9" cy="12.4516" r="11.9" stroke="black"/>
<circle cx="1331.3" cy="12.4" r="11.9" stroke="black"/>
<circle cx="1343.7" cy="12.4" r="11.9" stroke="black"/>
<circle cx="1356.1" cy="12.4" r="11.9" stroke="black"/>
<path d="M764 12H1146" stroke="black"/>
<circle cx="786.65" cy="12.15" r="3.735" fill="white" stroke="black" stroke-width="0.83"/>
<circle cx="836.45" cy="12.15" r="3.735" fill="white" stroke="black" stroke-width="0.83"/>
<circle cx="848.9" cy="12.15" r="3.735" fill="white" stroke="black" stroke-width="0.83"/>
<circle cx="861.35" cy="12.15" r="3.735" fill="white" stroke="black" stroke-width="0.83"/>
<circle cx="1130.15" cy="12.15" r="3.735" fill="white" stroke="black" stroke-width="0.83"/>
<circle cx="1055.45" cy="12.15" r="3.735" fill="white" stroke="black" stroke-width="0.83"/>
<circle cx="1067.9" cy="12.15" r="3.735" fill="white" stroke="black" stroke-width="0.83"/>
<circle cx="1080.35" cy="12.15" r="3.735" fill="white" stroke="black" stroke-width="0.83"/>
<circle cx="936.9" cy="12.4516" r="11.9" stroke="black"/>
<circle cx="949.3" cy="12.4" r="11.9" stroke="black"/>
<circle cx="961.7" cy="12.4" r="11.9" stroke="black"/>
<circle cx="974.1" cy="12.4" r="11.9" stroke="black"/>
<path d="M382 12H764" stroke="black"/>
<circle cx="404.65" cy="12.15" r="3.735" fill="white" stroke="black" stroke-width="0.83"/>
<circle cx="454.45" cy="12.15" r="3.735" fill="white" stroke="black" stroke-width="0.83"/>
<circle cx="466.9" cy="12.15" r="3.735" fill="white" stroke="black" stroke-width="0.83"/>
<circle cx="479.35" cy="12.15" r="3.735" fill="white" stroke="black" stroke-width="0.83"/>
<circle cx="748.15" cy="12.15" r="3.735" fill="white" stroke="black" stroke-width="0.83"/>
<circle cx="673.45" cy="12.15" r="3.735" fill="white" stroke="black" stroke-width="0.83"/>
<circle cx="685.9" cy="12.15" r="3.735" fill="white" stroke="black" stroke-width="0.83"/>
<circle cx="698.35" cy="12.15" r="3.735" fill="white" stroke="black" stroke-width="0.83"/>
<circle cx="554.9" cy="12.4516" r="11.9" stroke="black"/>
<circle cx="567.3" cy="12.4" r="11.9" stroke="black"/>
<circle cx="579.7" cy="12.4" r="11.9" stroke="black"/>
<circle cx="592.1" cy="12.4" r="11.9" stroke="black"/>
<path d="M0 12H382" stroke="black"/>
<circle cx="22.65" cy="12.15" r="3.735" fill="white" stroke="black" stroke-width="0.83"/>
<circle cx="72.4498" cy="12.15" r="3.735" fill="white" stroke="black" stroke-width="0.83"/>
<circle cx="84.9" cy="12.15" r="3.735" fill="white" stroke="black" stroke-width="0.83"/>
<circle cx="97.3502" cy="12.15" r="3.735" fill="white" stroke="black" stroke-width="0.83"/>
<circle cx="366.15" cy="12.15" r="3.735" fill="white" stroke="black" stroke-width="0.83"/>
<circle cx="291.45" cy="12.15" r="3.735" fill="white" stroke="black" stroke-width="0.83"/>
<circle cx="303.9" cy="12.15" r="3.735" fill="white" stroke="black" stroke-width="0.83"/>
<circle cx="316.35" cy="12.15" r="3.735" fill="white" stroke="black" stroke-width="0.83"/>
<circle cx="172.9" cy="12.4516" r="11.9" stroke="black"/>
<circle cx="185.3" cy="12.4" r="11.9" stroke="black"/>
<circle cx="197.7" cy="12.4" r="11.9" stroke="black"/>
<circle cx="210.1" cy="12.4" r="11.9" stroke="black"/>
</svg>
