<svg width="24" height="1075" viewBox="0 0 24 1075" fill="none" xmlns="http://www.w3.org/2000/svg">
<rect x="1.21469" y="1.21469" width="20.6497" height="183.418" rx="10.3249" stroke="#0B91A6" stroke-width="2.42938"/>
<circle cx="12.147" cy="53.4463" r="3.18856" stroke="#0B91A6" stroke-width="0.911017"/>
<circle cx="12.147" cy="58.3052" r="3.18856" stroke="#0B91A6" stroke-width="0.911017"/>
<circle cx="12.147" cy="63.1638" r="3.18856" stroke="#0B91A6" stroke-width="0.911017"/>
<circle cx="12.147" cy="68.0225" r="3.18856" stroke="#0B91A6" stroke-width="0.911017"/>
<circle cx="12.147" cy="72.8814" r="3.18856" stroke="#0B91A6" stroke-width="0.911017"/>
<circle cx="12.147" cy="77.74" r="3.18856" stroke="#0B91A6" stroke-width="0.911017"/>
<circle cx="12.147" cy="102.034" r="3.18856" stroke="#0B91A6" stroke-width="0.911017"/>
<circle cx="12.147" cy="126.328" r="3.18856" stroke="#0B91A6" stroke-width="0.911017"/>
<circle cx="12.147" cy="82.5989" r="3.18856" stroke="#0B91A6" stroke-width="0.911017"/>
<circle cx="12.147" cy="106.893" r="3.18856" stroke="#0B91A6" stroke-width="0.911017"/>
<circle cx="12.147" cy="131.187" r="3.18856" stroke="#0B91A6" stroke-width="0.911017"/>
<circle cx="12.147" cy="161.554" r="3.18856" stroke="#0B91A6" stroke-width="0.911017"/>
<circle cx="12.147" cy="87.4575" r="3.18856" stroke="#0B91A6" stroke-width="0.911017"/>
<circle cx="12.147" cy="111.751" r="3.18856" stroke="#0B91A6" stroke-width="0.911017"/>
<circle cx="12.147" cy="136.045" r="3.18856" stroke="#0B91A6" stroke-width="0.911017"/>
<circle cx="12.147" cy="166.412" r="3.18856" stroke="#0B91A6" stroke-width="0.911017"/>
<circle cx="12.147" cy="23.0791" r="3.18856" stroke="#0B91A6" stroke-width="0.911017"/>
<line x1="11.54" y1="184.633" x2="11.54" y2="890.367" stroke="white" stroke-width="1.21469"/>
<circle cx="11.5397" cy="205.89" r="2.42938" fill="black" stroke="white" stroke-width="1.21469"/>
<circle cx="11.5397" cy="810.805" r="2.42938" fill="black" stroke="white" stroke-width="1.21469"/>
<circle cx="11.5397" cy="226.54" r="2.42938" fill="black" stroke="white" stroke-width="1.21469"/>
<circle cx="11.5397" cy="831.455" r="2.42938" fill="black" stroke="white" stroke-width="1.21469"/>
<circle cx="11.5397" cy="235.042" r="2.42938" fill="black" stroke="white" stroke-width="1.21469"/>
<circle cx="11.5397" cy="839.958" r="2.42938" fill="black" stroke="white" stroke-width="1.21469"/>
<circle cx="11.5397" cy="242.33" r="2.42938" fill="black" stroke="white" stroke-width="1.21469"/>
<circle cx="11.5397" cy="847.246" r="2.42938" fill="black" stroke="white" stroke-width="1.21469"/>
<circle cx="11.5397" cy="262.98" r="2.42938" fill="black" stroke="white" stroke-width="1.21469"/>
<circle cx="11.5397" cy="867.896" r="2.42938" fill="black" stroke="white" stroke-width="1.21469"/>
<line x1="4.8584" y1="763.432" x2="18.22" y2="763.432" stroke="white" stroke-width="1.21469"/>
<line y1="-0.607345" x2="13.3616" y2="-0.607345" transform="matrix(1 0 0 -1 4.8584 309.746)" stroke="white" stroke-width="1.21469"/>
<line x1="4.8584" y1="714.845" x2="18.22" y2="714.845" stroke="white" stroke-width="1.21469"/>
<line y1="-0.607345" x2="13.3616" y2="-0.607345" transform="matrix(1 0 0 -1 4.8584 358.333)" stroke="white" stroke-width="1.21469"/>
<line x1="3.64453" y1="706.342" x2="19.4355" y2="706.342" stroke="white" stroke-width="1.21469"/>
<line y1="-0.607345" x2="15.791" y2="-0.607345" transform="matrix(1 0 0 -1 3.64453 366.836)" stroke="white" stroke-width="1.21469"/>
<line x1="4.8584" y1="697.232" x2="18.22" y2="697.232" stroke="white" stroke-width="2.42938"/>
<line y1="-1.21469" x2="13.3616" y2="-1.21469" transform="matrix(1 0 0 -1 4.8584 375.339)" stroke="white" stroke-width="2.42938"/>
<line x1="4.8584" y1="668.079" x2="18.22" y2="668.079" stroke="white" stroke-width="2.42938"/>
<line y1="-1.21469" x2="13.3616" y2="-1.21469" transform="matrix(1 0 0 -1 4.8584 404.491)" stroke="white" stroke-width="2.42938"/>
<circle cx="11.5397" cy="697.232" r="2.42938" fill="black" stroke="white" stroke-width="1.21469"/>
<circle cx="3.03672" cy="3.03672" r="2.42938" transform="matrix(1 0 0 -1 8.50293 379.59)" fill="black" stroke="white" stroke-width="1.21469"/>
<circle cx="11.5397" cy="675.975" r="2.42938" fill="black" stroke="white" stroke-width="1.21469"/>
<circle cx="3.03672" cy="3.03672" r="2.42938" transform="matrix(1 0 0 -1 8.50293 400.847)" fill="black" stroke="white" stroke-width="1.21469"/>
<circle cx="11.5397" cy="668.079" r="2.42938" fill="black" stroke="white" stroke-width="1.21469"/>
<circle cx="3.03672" cy="3.03672" r="2.42938" transform="matrix(1 0 0 -1 8.50293 408.743)" fill="black" stroke="white" stroke-width="1.21469"/>
<circle cx="11.5397" cy="660.184" r="2.42938" fill="black" stroke="white" stroke-width="1.21469"/>
<circle cx="3.03672" cy="3.03672" r="2.42938" transform="matrix(1 0 0 -1 8.50293 416.638)" fill="black" stroke="white" stroke-width="1.21469"/>
<circle cx="11.5397" cy="639.534" r="2.42938" fill="black" stroke="white" stroke-width="1.21469"/>
<circle cx="3.03672" cy="3.03672" r="2.42938" transform="matrix(1 0 0 -1 8.50293 437.288)" fill="black" stroke="white" stroke-width="1.21469"/>
<rect x="1.21469" y="-1.21469" width="20.6497" height="183.418" rx="10.3249" transform="matrix(1 0 0 -1 0 1072.57)" stroke="#0B91A6" stroke-width="2.42938"/>
<circle cx="3.64407" cy="3.64407" r="3.18856" transform="matrix(1 0 0 -1 8.50293 1025.2)" stroke="#0B91A6" stroke-width="0.911017"/>
<circle cx="3.64407" cy="3.64407" r="3.18856" transform="matrix(1 0 0 -1 8.50293 1020.34)" stroke="#0B91A6" stroke-width="0.911017"/>
<circle cx="3.64407" cy="3.64407" r="3.18856" transform="matrix(1 0 0 -1 8.50293 1015.48)" stroke="#0B91A6" stroke-width="0.911017"/>
<circle cx="3.64407" cy="3.64407" r="3.18856" transform="matrix(1 0 0 -1 8.50293 1010.62)" stroke="#0B91A6" stroke-width="0.911017"/>
<circle cx="3.64407" cy="3.64407" r="3.18856" transform="matrix(1 0 0 -1 8.50293 1005.76)" stroke="#0B91A6" stroke-width="0.911017"/>
<circle cx="3.64407" cy="3.64407" r="3.18856" transform="matrix(1 0 0 -1 8.50293 1000.9)" stroke="#0B91A6" stroke-width="0.911017"/>
<circle cx="3.64407" cy="3.64407" r="3.18856" transform="matrix(1 0 0 -1 8.50293 976.61)" stroke="#0B91A6" stroke-width="0.911017"/>
<circle cx="3.64407" cy="3.64407" r="3.18856" transform="matrix(1 0 0 -1 8.50293 952.316)" stroke="#0B91A6" stroke-width="0.911017"/>
<circle cx="3.64407" cy="3.64407" r="3.18856" transform="matrix(1 0 0 -1 8.50293 996.045)" stroke="#0B91A6" stroke-width="0.911017"/>
<circle cx="3.64407" cy="3.64407" r="3.18856" transform="matrix(1 0 0 -1 8.50293 971.751)" stroke="#0B91A6" stroke-width="0.911017"/>
<circle cx="3.64407" cy="3.64407" r="3.18856" transform="matrix(1 0 0 -1 8.50293 947.458)" stroke="#0B91A6" stroke-width="0.911017"/>
<circle cx="3.64407" cy="3.64407" r="3.18856" transform="matrix(1 0 0 -1 8.50293 917.09)" stroke="#0B91A6" stroke-width="0.911017"/>
<circle cx="3.64407" cy="3.64407" r="3.18856" transform="matrix(1 0 0 -1 8.50293 991.186)" stroke="#0B91A6" stroke-width="0.911017"/>
<circle cx="3.64407" cy="3.64407" r="3.18856" transform="matrix(1 0 0 -1 8.50293 966.893)" stroke="#0B91A6" stroke-width="0.911017"/>
<circle cx="3.64407" cy="3.64407" r="3.18856" transform="matrix(1 0 0 -1 8.50293 942.599)" stroke="#0B91A6" stroke-width="0.911017"/>
<circle cx="3.64407" cy="3.64407" r="3.18856" transform="matrix(1 0 0 -1 8.50293 912.232)" stroke="#0B91A6" stroke-width="0.911017"/>
<circle cx="3.64407" cy="3.64407" r="3.18856" transform="matrix(1 0 0 -1 8.50293 1055.56)" stroke="#0B91A6" stroke-width="0.911017"/>
</svg>
