<svg width="381" height="964" viewBox="0 0 381 964" fill="none" xmlns="http://www.w3.org/2000/svg">
<circle cx="30.15" cy="4.15006" r="3.735" fill="white" stroke="black" stroke-width="0.83"/>
<circle cx="154.65" cy="4.15" r="3.735" fill="white" stroke="black" stroke-width="0.83"/>
<circle cx="79.9498" cy="4.15" r="3.735" fill="white" stroke="black" stroke-width="0.83"/>
<circle cx="92.4" cy="4.15" r="3.735" fill="white" stroke="black" stroke-width="0.83"/>
<circle cx="104.85" cy="4.15" r="3.735" fill="white" stroke="black" stroke-width="0.83"/>
<circle cx="234.15" cy="4.15006" r="3.735" fill="white" stroke="black" stroke-width="0.83"/>
<circle cx="358.65" cy="4.15002" r="3.735" fill="white" stroke="black" stroke-width="0.83"/>
<circle cx="283.95" cy="4.15002" r="3.735" fill="white" stroke="black" stroke-width="0.83"/>
<circle cx="296.4" cy="4.15002" r="3.735" fill="white" stroke="black" stroke-width="0.83"/>
<circle cx="308.85" cy="4.15002" r="3.735" fill="white" stroke="black" stroke-width="0.83"/>
<path d="M0 53.2305V24.2266C0 22.2409 0.716146 20.5482 2.14844 19.1485C3.54818 17.7162 5.25716 17.0001 7.27539 17.0001H25.3906C27.3763 17.0001 29.0853 17.7162 30.5176 19.1485C31.9173 20.5482 32.6172 22.2409 32.6172 24.2266V42.1465H18.1152V31.502H14.502V46.004H25.3906C27.3763 46.004 29.0853 46.7201 30.5176 48.1524C31.9173 49.5521 32.6172 51.2449 32.6172 53.2305V82.2344C32.6172 84.2527 31.9173 85.9616 30.5176 87.3614C29.0853 88.7937 27.3763 89.5098 25.3906 89.5098H7.27539C5.25716 89.5098 3.54818 88.7937 2.14844 87.3614C0.716146 85.9616 0 84.2527 0 82.2344V64.3145H14.502V75.0079H18.1152V60.5059H7.27539C5.25716 60.5059 3.54818 59.7898 2.14844 58.3575C0.716146 56.9577 0 55.2488 0 53.2305Z" fill="#0B91A6"/>
<path d="M56.3457 17.0001H70.8477V82.2344C70.8477 84.2527 70.1478 85.9616 68.748 87.3614C67.3158 88.7937 65.6068 89.5098 63.6211 89.5098H45.5059C43.4876 89.5098 41.7786 88.7937 40.3789 87.3614C38.9466 85.9616 38.2305 84.2527 38.2305 82.2344V60.5059H52.7324V75.0079H56.3457V17.0001Z" fill="#0B91A6"/>
<path d="M76.4609 82.2344V24.2266C76.4609 22.2409 77.1771 20.5482 78.6094 19.1485C80.0091 17.7162 81.7181 17.0001 83.7363 17.0001H101.852C103.837 17.0001 105.546 17.7162 106.979 19.1485C108.378 20.5482 109.078 22.2409 109.078 24.2266V50.8868H94.5762V31.502H90.9629V75.0079H94.5762V55.6231H109.078V82.2344C109.078 84.2527 108.378 85.9616 106.979 87.3614C105.546 88.7937 103.837 89.5098 101.852 89.5098H83.7363C81.7181 89.5098 80.0091 88.7937 78.6094 87.3614C77.1771 85.9616 76.4609 84.2527 76.4609 82.2344Z" fill="#0B91A6"/>
<path d="M132.807 39.5098V31.502H129.193V43.4649H147.309V57.9669H129.193V75.0079H132.807V61.9219H147.309V82.2344C147.309 84.2527 146.609 85.9616 145.209 87.3614C143.777 88.7937 142.068 89.5098 140.082 89.5098H121.967C119.949 89.5098 118.24 88.7937 116.84 87.3614C115.408 85.9616 114.691 84.2527 114.691 82.2344V24.2266C114.691 22.2409 115.408 20.5482 116.84 19.1485C118.24 17.7162 119.949 17.0001 121.967 17.0001H140.082C142.068 17.0001 143.777 17.7162 145.209 19.1485C146.609 20.5482 147.309 22.2409 147.309 24.2266V39.5098H132.807Z" fill="#0B91A6"/>
<path d="M152.922 17.0001H185.539V31.502H176.457V89.5098H161.955V31.502H152.922V17.0001Z" fill="#0B91A6"/>
<path d="M227.186 89.5098H212.684V17.0001H238.074C240.06 17.0001 241.769 17.7162 243.201 19.1485C244.601 20.5482 245.301 22.2409 245.301 24.2266V67.7325C245.301 69.7507 244.601 71.4597 243.201 72.8594C241.769 74.2917 240.06 75.0079 238.074 75.0079H227.186V89.5098ZM230.799 31.502H227.186V60.5059H230.799V31.502Z" fill="#0B91A6"/>
<path d="M250.914 89.5098V24.2266C250.914 22.2409 251.63 20.5482 253.062 19.1485C254.462 17.7162 256.171 17.0001 258.189 17.0001H276.305C278.29 17.0001 279.999 17.7162 281.432 19.1485C282.831 20.5482 283.531 22.2409 283.531 24.2266V89.5098H269.029V65.1934H265.416V89.5098H250.914ZM269.029 50.6915V31.502H265.416V50.6915H269.029Z" fill="#0B91A6"/>
<path d="M303.646 17.0001V75.0079H307.26V50.252H321.762V82.2833C321.762 84.2689 321.046 85.9616 319.613 87.3614C318.214 88.7937 316.521 89.5098 314.535 89.5098H296.371C294.385 89.5098 292.693 88.7937 291.293 87.3614C289.861 85.9616 289.145 84.2689 289.145 82.2833V17.0001H303.646Z" fill="#0B91A6"/>
<path d="M327.375 89.5098V24.2266C327.375 22.2409 328.091 20.5482 329.523 19.1485C330.923 17.7162 332.632 17.0001 334.65 17.0001H352.766C354.751 17.0001 356.46 17.7162 357.893 19.1485C359.292 20.5482 359.992 22.2409 359.992 24.2266V89.5098H345.49V65.1934H341.877V89.5098H327.375ZM345.49 50.6915V31.502H341.877V50.6915H345.49Z" fill="#0B91A6"/>
<path d="M380.107 17.0001V963.51H365.605V17.0001H380.107Z" fill="#0B91A6"/>
</svg>
