<svg width="553" height="237" viewBox="0 0 553 237" fill="none" xmlns="http://www.w3.org/2000/svg">
<path d="M239.316 36.8355C262.956 29.2121 274.981 16.8208 276.152 0.106445V199.828H271.681V36.8355H239.316Z" fill="white" stroke="white" stroke-width="0.212922"/>
<path d="M99 223.888H234.099" stroke="white" stroke-width="1.49046" stroke-linecap="round"/>
<path d="M213.242 118.385V99.6479C234.109 103.693 264.45 93.0473 265.94 80.3784C267.405 89.3161 269.134 92.9408 275.735 93.5796V118.385H213.242Z" fill="white" stroke="white" stroke-width="0.212922" stroke-linecap="round"/>
<path d="M248.695 129.67H258.383V157.776C262.231 159.522 264.961 160.137 270.413 160.863C265.349 161.492 262.741 162.23 258.383 164.057V191.95H248.695V129.67Z" fill="white"/>
<path d="M258.383 157.776V129.67H248.695V191.95H258.383V164.057M258.383 157.776C262.231 159.522 264.961 160.137 270.413 160.863C265.349 161.492 262.741 162.23 258.383 164.057M258.383 157.776V164.057" stroke="white" stroke-width="0.212922"/>
<path d="M245.818 161.183C219.629 170.125 204.511 136.91 234.852 130.202C220.161 126.902 204.617 141.381 212.709 157.776L210.579 159.905C236.236 156.179 244.008 185.03 218.564 190.14C234.214 196.102 251.567 181.73 244.008 163.525L245.818 161.183Z" fill="white" stroke="white" stroke-width="0.212922"/>
<path d="M241.982 81.3363C243.112 81.5071 243.539 81.7263 244.005 82.2944C240.576 85.1755 231.442 87.0852 216.538 87.0852C215.073 86.7481 214.909 85.5267 215.899 81.3363C220.772 61.6608 226.758 49.7173 237.298 40.4552C239.308 38.6881 241.789 38.661 244.324 39.1777C249.647 41.094 256.461 45.9912 259.442 53.9758C261.252 63.7703 246.986 77.7167 231.23 73.8841C228.102 73.3169 230.271 70.1579 236.553 59.7248C238.983 56.5981 240.133 55.2805 243.047 53.6565C244.324 53.0177 245.176 53.55 245.176 55.5728V60.47C245.116 61.1004 244.935 61.2939 244.324 61.3217H241.769C236.659 62.8121 235.062 70.7967 236.34 70.6902C246.986 71.1161 255.928 63.025 255.077 54.5082C254.917 52.9112 247.412 45.8848 243.473 45.459C237.298 44.1814 226.226 61.1087 223.032 78.4618C225.604 81.5553 232.188 82.5073 241.982 81.3363Z" fill="white"/>
<path d="M244.005 82.2944L244.073 82.3759L244.154 82.3083L244.087 82.2269L244.005 82.2944ZM241.982 81.3363L241.998 81.231L241.969 81.2305L241.982 81.3363ZM223.032 78.4618L222.927 78.4425L222.918 78.4916L222.95 78.5299L223.032 78.4618ZM216.538 87.0852L216.514 87.1889L216.526 87.1916H216.538V87.0852ZM215.899 81.3363L215.796 81.3107L215.795 81.3118L215.899 81.3363ZM237.298 40.4552L237.368 40.5351L237.368 40.5351L237.298 40.4552ZM244.324 39.1777L244.36 39.0776L244.353 39.0749L244.345 39.0734L244.324 39.1777ZM259.442 53.9758L259.546 53.9565L259.545 53.9473L259.541 53.9386L259.442 53.9758ZM231.23 73.8841L231.255 73.7804L231.249 73.7793L231.23 73.8841ZM236.553 59.7248L236.468 59.6589L236.461 59.6698L236.553 59.7248ZM243.047 53.6565L242.999 53.5611L242.995 53.5635L243.047 53.6565ZM245.176 60.47L245.282 60.48V60.47H245.176ZM244.324 61.3217V61.4282L244.329 61.428L244.324 61.3217ZM241.769 61.3217V61.2152H241.754L241.739 61.2195L241.769 61.3217ZM236.34 70.6902L236.344 70.5831L236.331 70.5842L236.34 70.6902ZM255.077 54.5082L254.971 54.5187L255.077 54.5082ZM243.473 45.459L243.451 45.5637L243.461 45.5648L243.473 45.459ZM244.087 82.2269C243.848 81.9345 243.613 81.7261 243.289 81.5704C242.968 81.4162 242.566 81.3169 241.998 81.231L241.966 81.4415C242.528 81.5265 242.905 81.6221 243.197 81.7623C243.485 81.9009 243.697 82.0861 243.922 82.3619L244.087 82.2269ZM241.969 81.2305C237.077 81.8155 232.993 81.8693 229.815 81.393C226.633 80.9162 224.375 79.9109 223.114 78.3937L222.95 78.5299C224.261 80.1062 226.581 81.1237 229.783 81.6035C232.988 82.0838 237.092 82.0281 241.995 81.442L241.969 81.2305ZM243.936 82.2129C242.244 83.6349 239.127 84.8287 234.556 85.6655C229.989 86.5015 223.986 86.9787 216.538 86.9787V87.1916C223.994 87.1916 230.011 86.714 234.594 85.8749C239.173 85.0366 242.337 83.835 244.073 82.3759L243.936 82.2129ZM216.562 86.9814C216.208 86.9001 215.946 86.7684 215.76 86.5625C215.574 86.3567 215.452 86.0651 215.404 85.6435C215.306 84.7935 215.507 83.4583 216.003 81.3607L215.795 81.3118C215.301 83.4047 215.09 84.7753 215.192 85.6679C215.244 86.1177 215.377 86.4565 215.602 86.7054C215.827 86.9543 216.135 87.1017 216.514 87.1889L216.562 86.9814ZM216.002 81.3618C220.873 61.6966 226.851 49.777 237.368 40.5351L237.228 40.3752C226.665 49.6576 220.671 61.625 215.796 81.3107L216.002 81.3618ZM237.368 40.5351C239.341 38.8014 241.779 38.7676 244.303 39.282L244.345 39.0734C241.799 38.5544 239.276 38.5749 237.228 40.3752L237.368 40.5351ZM244.288 39.2779C249.589 41.1863 256.374 46.0644 259.342 54.0131L259.541 53.9386C256.547 45.918 249.705 41.0018 244.36 39.0776L244.288 39.2779ZM259.337 53.9952C260.232 58.8374 257.151 64.737 251.857 68.9568C246.568 73.1721 239.095 75.6878 231.255 73.7806L231.204 73.9875C239.12 75.913 246.659 73.3717 251.989 69.1234C257.314 64.8795 260.461 58.9087 259.546 53.9565L259.337 53.9952ZM231.249 73.7793C230.483 73.6405 230.085 73.3522 229.962 72.8731C229.898 72.6254 229.904 72.3152 229.987 71.928C230.07 71.5412 230.228 71.0842 230.46 70.5464C231.393 68.3902 233.5 65.0016 236.644 59.7797L236.461 59.6698C233.324 64.8811 231.205 68.2885 230.265 70.4619C230.029 71.0065 229.866 71.4777 229.779 71.8834C229.692 72.2885 229.681 72.6348 229.755 72.926C229.909 73.5248 230.412 73.844 231.211 73.9888L231.249 73.7793ZM236.637 59.7901C239.064 56.6671 240.204 55.363 243.099 53.7495L242.995 53.5635C240.063 55.198 238.902 56.5292 236.469 59.6594L236.637 59.7901ZM243.094 53.7517C243.72 53.439 244.199 53.4331 244.523 53.6988C244.856 53.9726 245.069 54.5675 245.069 55.5728H245.282C245.282 54.5553 245.07 53.8726 244.658 53.5343C244.236 53.1878 243.651 53.2351 242.999 53.5612L243.094 53.7517ZM245.069 55.5728V60.47H245.282V55.5728H245.069ZM245.07 60.46C245.04 60.7721 244.982 60.9446 244.881 61.047C244.782 61.1476 244.619 61.2017 244.319 61.2153L244.329 61.428C244.64 61.4139 244.874 61.3574 245.033 61.1966C245.19 61.0377 245.252 60.7982 245.282 60.48L245.07 60.46ZM244.324 61.2152H241.769V61.4281H244.324V61.2152ZM241.739 61.2195C239.138 61.9781 237.444 64.3834 236.56 66.5648C236.118 67.6575 235.875 68.7034 235.824 69.4739C235.799 69.8575 235.821 70.1823 235.895 70.4123C235.933 70.5275 235.986 70.6272 236.062 70.6971C236.14 70.7698 236.238 70.8055 236.348 70.7963L236.331 70.5842C236.282 70.5883 236.242 70.5741 236.206 70.5408C236.167 70.5047 236.129 70.4423 236.098 70.3465C236.035 70.1544 236.012 69.8612 236.037 69.4879C236.086 68.7447 236.322 67.7213 236.758 66.6448C237.631 64.4879 239.29 62.1557 241.799 61.4239L241.739 61.2195ZM236.335 70.7966C241.686 71.0107 246.61 69.0845 250.09 66.0328C253.57 62.9815 255.613 58.7978 255.183 54.4976L254.971 54.5187C255.393 58.7354 253.39 62.8556 249.95 65.8727C246.51 68.8892 241.639 70.7957 236.344 70.5839L236.335 70.7966ZM255.183 54.4976C255.16 54.2698 255.012 53.9663 254.783 53.6197C254.551 53.2682 254.226 52.857 253.83 52.4098C253.038 51.5153 251.958 50.4704 250.76 49.4629C249.563 48.4555 248.246 47.4836 246.979 46.7363C245.715 45.9905 244.492 45.4621 243.484 45.3531L243.461 45.5648C244.423 45.6688 245.615 46.1783 246.871 46.9197C248.125 47.6595 249.432 48.6238 250.623 49.6259C251.815 50.6279 252.887 51.6656 253.67 52.551C254.062 52.9938 254.381 53.3968 254.605 53.7369C254.833 54.0819 254.954 54.3473 254.971 54.5187L255.183 54.4976ZM243.494 45.3547C241.899 45.0248 240.015 45.8724 238.054 47.5556C236.086 49.2434 234.017 51.7912 232.044 54.9171C228.098 61.1694 224.527 69.7521 222.927 78.4425L223.137 78.4811C224.731 69.8184 228.292 61.261 232.224 55.0307C234.191 51.9153 236.247 49.3863 238.192 47.7172C240.143 46.0436 241.958 45.2544 243.451 45.5632L243.494 45.3547Z" fill="white"/>
<path d="M86.1261 193.334C65.6855 218.14 31.0857 238.261 0.105469 236.344C44.9256 214.413 58.2332 200.254 73.3507 164.377C94.7561 122.231 111.972 106.021 151.813 91.9832L200.465 79.3149C207.928 78.9289 209.621 81.6564 209.621 84.638V201.745H123.494L182.367 174.704V116.15C143.722 105.079 92.7267 150.218 86.1261 193.334Z" fill="white"/>
<path d="M312.988 36.7291C289.348 29.1057 277.324 16.7144 276.153 0V199.721H280.624V36.7291H312.988Z" fill="white" stroke="white" stroke-width="0.212922"/>
<path d="M453.309 223.781H318.209" stroke="white" stroke-width="1.49046" stroke-linecap="round"/>
<path d="M339.078 118.278V99.541C318.212 103.586 287.87 92.9404 286.38 80.2715C284.915 89.2092 283.186 92.8339 276.585 93.4727V118.278H339.078Z" fill="white" stroke="white" stroke-width="0.212922" stroke-linecap="round"/>
<path d="M303.629 129.563H293.941V157.669C290.093 159.416 287.363 160.031 281.911 160.757C286.975 161.386 289.583 162.124 293.941 163.95V191.843H303.629V129.563Z" fill="white"/>
<path d="M293.941 157.669V129.563H303.629V191.843H293.941V163.95M293.941 157.669C290.093 159.416 287.363 160.031 281.911 160.757C286.975 161.386 289.583 162.124 293.941 163.95M293.941 157.669V163.95" stroke="white" stroke-width="0.212922"/>
<path d="M306.495 161.076C332.684 170.019 347.801 136.803 317.46 130.096C332.152 126.796 347.695 141.275 339.604 157.669L341.733 159.799C316.076 156.073 308.304 184.924 333.749 190.034C318.099 195.996 300.746 181.623 308.304 163.418L306.495 161.076Z" fill="white" stroke="white" stroke-width="0.212922"/>
<path d="M310.334 81.2303C309.204 81.4011 308.777 81.6203 308.312 82.1884C311.74 85.0696 320.874 86.9792 335.779 86.9792C337.243 86.6421 337.407 85.4207 336.417 81.2303C331.545 61.5549 325.558 49.6113 315.019 40.3492C313.008 38.5822 310.527 38.555 307.992 39.0718C302.669 40.9881 295.856 45.8853 292.875 53.8699C291.065 63.6643 305.331 77.6107 321.087 73.7781C324.214 73.211 322.045 70.052 315.764 59.6188C313.333 56.4922 312.183 55.1746 309.27 53.5505C307.992 52.9117 307.14 53.444 307.14 55.4668V60.364C307.2 60.9944 307.381 61.188 307.992 61.2157H310.547C315.657 62.7062 317.254 70.6908 315.977 70.5843C305.331 71.0101 296.388 62.9191 297.24 54.4022C297.399 52.8053 304.905 45.7788 308.844 45.353C315.019 44.0755 326.091 61.0028 329.284 78.3558C326.712 81.4494 320.129 82.4014 310.334 81.2303Z" fill="white"/>
<path d="M308.312 82.1884L308.243 82.2699L308.163 82.2023L308.229 82.121L308.312 82.1884ZM310.334 81.2303L310.318 81.125L310.347 81.1246L310.334 81.2303ZM329.284 78.3558L329.389 78.3366L329.398 78.3856L329.366 78.4239L329.284 78.3558ZM335.779 86.9792L335.802 87.0829L335.791 87.0857H335.779V86.9792ZM336.417 81.2303L336.521 81.2047L336.521 81.2058L336.417 81.2303ZM315.019 40.3492L314.948 40.4292L314.948 40.4292L315.019 40.3492ZM307.992 39.0718L307.956 38.9716L307.963 38.969L307.971 38.9675L307.992 39.0718ZM292.875 53.8699L292.77 53.8505L292.772 53.8414L292.775 53.8327L292.875 53.8699ZM321.087 73.7781L321.062 73.6745L321.068 73.6733L321.087 73.7781ZM315.764 59.6188L315.848 59.553L315.855 59.5639L315.764 59.6188ZM309.27 53.5505L309.317 53.4552L309.322 53.4575L309.27 53.5505ZM307.14 60.364L307.034 60.3741V60.364H307.14ZM307.992 61.2157V61.3223L307.987 61.3221L307.992 61.2157ZM310.547 61.2157V61.1092H310.562L310.577 61.1135L310.547 61.2157ZM315.977 70.5843L315.972 70.4771L315.986 70.4782L315.977 70.5843ZM297.24 54.4022L297.346 54.4128L297.24 54.4022ZM308.844 45.353L308.866 45.4577L308.855 45.4588L308.844 45.353ZM308.229 82.121C308.469 81.8286 308.704 81.6201 309.028 81.4644C309.348 81.3103 309.75 81.2109 310.318 81.125L310.35 81.3356C309.788 81.4205 309.412 81.5161 309.12 81.6563C308.831 81.795 308.62 81.9802 308.394 82.2559L308.229 82.121ZM310.347 81.1246C315.239 81.7095 319.323 81.7634 322.502 81.287C325.683 80.8102 327.941 79.805 329.203 78.2878L329.366 78.4239C328.055 80.0003 325.735 81.0177 322.533 81.4976C319.329 81.9778 315.224 81.9221 310.322 81.336L310.347 81.1246ZM308.38 82.1069C310.072 83.5289 313.19 84.7227 317.761 85.5595C322.327 86.3955 328.33 86.8727 335.779 86.8727V87.0857C328.322 87.0857 322.306 86.608 317.722 85.769C313.143 84.9307 309.979 83.7291 308.243 82.2699L308.38 82.1069ZM335.755 86.8755C336.108 86.7941 336.37 86.6624 336.556 86.4566C336.743 86.2507 336.864 85.9591 336.913 85.5376C337.01 84.6876 336.809 83.3523 336.314 81.2548L336.521 81.2058C337.015 83.2987 337.227 84.6694 337.124 85.5619C337.072 86.0117 336.94 86.3505 336.714 86.5995C336.489 86.8484 336.181 86.9957 335.802 87.0829L335.755 86.8755ZM336.314 81.2559C331.444 61.5907 325.465 49.671 314.948 40.4292L315.089 40.2692C325.652 49.5516 331.645 61.5191 336.521 81.2047L336.314 81.2559ZM314.948 40.4292C312.976 38.6954 310.537 38.6616 308.013 39.1761L307.971 38.9675C310.517 38.4485 313.04 38.4689 315.089 40.2692L314.948 40.4292ZM308.028 39.1719C302.727 41.0803 295.942 45.9585 292.974 53.9071L292.775 53.8327C295.769 45.8121 302.611 40.8958 307.956 38.9716L308.028 39.1719ZM292.979 53.8892C292.085 58.7314 295.165 64.6311 300.46 68.8509C305.749 73.0661 313.221 75.5818 321.062 73.6747L321.112 73.8815C313.196 75.807 305.658 73.2658 300.327 69.0174C295.002 64.7736 291.855 58.8028 292.77 53.8505L292.979 53.8892ZM321.068 73.6733C321.833 73.5345 322.232 73.2462 322.355 72.7672C322.418 72.5195 322.412 72.2092 322.329 71.822C322.246 71.4353 322.089 70.9783 321.856 70.4405C320.923 68.2843 318.816 64.8956 315.673 59.6737L315.855 59.5639C318.992 64.7752 321.111 68.1826 322.051 70.3559C322.287 70.9005 322.451 71.3718 322.537 71.7774C322.624 72.1826 322.636 72.5288 322.561 72.8201C322.407 73.4188 321.904 73.7381 321.106 73.8829L321.068 73.6733ZM315.68 59.6841C313.252 56.5611 312.112 55.257 309.218 53.6435L309.322 53.4575C312.254 55.0921 313.415 56.4233 315.848 59.5535L315.68 59.6841ZM309.222 53.6457C308.597 53.3331 308.117 53.3272 307.794 53.5929C307.46 53.8666 307.247 54.4615 307.247 55.4668H307.034C307.034 54.4493 307.247 53.7667 307.658 53.4283C308.08 53.0819 308.665 53.1292 309.317 53.4553L309.222 53.6457ZM307.247 55.4668V60.364H307.034V55.4668H307.247ZM307.246 60.354C307.276 60.6662 307.334 60.8387 307.435 60.941C307.535 61.0416 307.697 61.0957 307.997 61.1094L307.987 61.3221C307.676 61.3079 307.443 61.2514 307.284 61.0907C307.127 60.9317 307.065 60.6922 307.035 60.374L307.246 60.354ZM307.992 61.1092H310.547V61.3222H307.992V61.1092ZM310.577 61.1135C313.178 61.8722 314.873 64.2775 315.756 66.4589C316.198 67.5515 316.441 68.5974 316.492 69.368C316.517 69.7516 316.496 70.0763 316.421 70.3064C316.384 70.4215 316.33 70.5213 316.255 70.5911C316.176 70.6638 316.078 70.6996 315.968 70.6904L315.986 70.4782C316.035 70.4823 316.074 70.4682 316.11 70.4349C316.149 70.3987 316.187 70.3364 316.219 70.2405C316.281 70.0484 316.304 69.7552 316.28 69.382C316.231 68.6388 315.995 67.6153 315.559 66.5388C314.685 64.3819 313.026 62.0497 310.517 61.3179L310.577 61.1135ZM315.981 70.6907C310.63 70.9047 305.706 68.9786 302.226 65.9268C298.747 62.8756 296.704 58.6919 297.134 54.3916L297.346 54.4128C296.924 58.6294 298.926 62.7497 302.367 65.7667C305.807 68.7833 310.677 70.6897 315.973 70.4779L315.981 70.6907ZM297.134 54.3916C297.156 54.1638 297.305 53.8604 297.534 53.5137C297.766 53.1623 298.091 52.751 298.486 52.3039C299.278 51.4093 300.358 50.3644 301.556 49.357C302.754 48.3496 304.071 47.3777 305.337 46.6303C306.601 45.8845 307.825 45.3561 308.832 45.2472L308.855 45.4588C307.894 45.5628 306.702 46.0724 305.445 46.8137C304.192 47.5535 302.884 48.5179 301.693 49.5199C300.502 50.5219 299.43 51.5597 298.646 52.445C298.254 52.8878 297.936 53.2908 297.711 53.631C297.484 53.9759 297.363 54.2413 297.346 54.4128L297.134 54.3916ZM308.822 45.2487C310.417 44.9188 312.301 45.7664 314.263 47.4497C316.23 49.1374 318.299 51.6853 320.272 54.8111C324.218 61.0634 327.79 69.6462 329.389 78.3366L329.18 78.3751C327.585 69.7125 324.024 61.1551 320.092 54.9248C318.126 51.8093 316.07 49.2804 314.124 47.6113C312.174 45.9377 310.358 45.1484 308.865 45.4573L308.822 45.2487Z" fill="white"/>
<path d="M466.19 193.228C486.631 218.033 521.231 238.154 552.211 236.238C507.391 214.307 494.083 200.148 478.966 164.27C457.56 122.124 440.345 105.915 400.504 91.8767L351.851 79.2085C344.389 78.8225 342.695 81.55 342.695 84.5315V201.639H428.822L369.949 174.598V116.043C408.595 104.972 459.59 150.112 466.19 193.228Z" fill="white"/>
</svg>
