<svg width="351" height="153" viewBox="0 0 351 153" fill="none" xmlns="http://www.w3.org/2000/svg">
<path d="M152.872 22.8343C167.392 18.1086 174.777 10.4274 175.497 0.0662231V123.872H172.75V22.8343H152.872Z" fill="black" stroke="black" stroke-width="0.131989"/>
<path d="M66.689 138.787H149.668" stroke="black" stroke-width="0.923923" stroke-linecap="round"/>
<path d="M136.852 73.3857V61.7707C149.668 64.2785 168.304 57.679 169.219 49.8257C170.119 55.3661 171.181 57.613 175.235 58.009V73.3857H136.852Z" fill="black" stroke="black" stroke-width="0.131989" stroke-linecap="round"/>
<path d="M158.626 80.3808H164.576V97.8033C166.94 98.886 168.616 99.2672 171.965 99.7172C168.854 100.107 167.252 100.565 164.576 101.697V118.988H158.626V80.3808Z" fill="black"/>
<path d="M164.576 97.8033V80.3808H158.626V118.988H164.576V101.697M164.576 97.8033C166.94 98.886 168.616 99.2672 171.965 99.7172C168.854 100.107 167.252 100.565 164.576 101.697M164.576 97.8033V101.697" stroke="black" stroke-width="0.131989"/>
<path d="M156.86 99.9157C140.775 105.459 131.489 84.869 150.125 80.7113C141.102 78.6655 131.555 87.6407 136.524 97.8039L135.217 99.1238C150.975 96.814 155.749 114.698 140.121 117.866C149.733 121.562 160.391 112.653 155.749 101.368L156.86 99.9157Z" fill="black" stroke="black" stroke-width="0.131989"/>
<path d="M154.506 50.4196C155.2 50.5254 155.463 50.6613 155.749 51.0135C153.643 52.7995 148.033 53.9833 138.878 53.9833C137.979 53.7743 137.878 53.0172 138.486 50.4196C141.479 38.2229 145.156 30.8192 151.629 25.0777C152.864 23.9823 154.388 23.9655 155.945 24.2858C159.214 25.4737 163.399 28.5094 165.23 33.459C166.342 39.5305 157.58 48.1758 147.902 45.8C145.981 45.4484 147.313 43.4902 151.171 37.0227C152.664 35.0846 153.371 34.2678 155.16 33.2611C155.945 32.8651 156.468 33.1951 156.468 34.449V37.4847C156.431 37.8755 156.32 37.9955 155.945 38.0127H154.376C151.237 38.9366 150.256 43.8862 151.041 43.8202C157.58 44.0842 163.072 39.0686 162.549 33.789C162.451 32.7991 157.841 28.4435 155.422 28.1795C151.629 27.3876 144.829 37.8807 142.867 48.6377C144.447 50.5554 148.49 51.1455 154.506 50.4196Z" fill="black"/>
<path d="M155.749 51.0135L155.791 51.0638L155.841 51.0221L155.8 50.9719L155.749 51.0135ZM154.506 50.4196L154.516 50.3543L154.498 50.354L154.506 50.4196ZM142.867 48.6377L142.802 48.6259L142.797 48.656L142.816 48.6797L142.867 48.6377ZM138.878 53.9833L138.863 54.0475L138.871 54.0492H138.878V53.9833ZM138.486 50.4196L138.422 50.4038L138.422 50.4045L138.486 50.4196ZM151.629 25.0777L151.673 25.127L151.673 25.127L151.629 25.0777ZM155.945 24.2858L155.968 24.2231L155.958 24.2212L155.945 24.2858ZM165.23 33.459L165.296 33.447L165.292 33.4361L165.23 33.459ZM147.902 45.8L147.918 45.7358L147.914 45.7351L147.902 45.8ZM151.171 37.0227L151.119 36.9822L151.115 36.9889L151.171 37.0227ZM155.16 33.2611L155.13 33.2021L155.128 33.2035L155.16 33.2611ZM156.468 37.4847L156.534 37.4909V37.4847H156.468ZM155.945 38.0127V38.0787L155.948 38.0786L155.945 38.0127ZM154.376 38.0127V37.9467H154.366L154.357 37.9494L154.376 38.0127ZM151.041 43.8202L151.043 43.7537L151.035 43.7544L151.041 43.8202ZM162.549 33.789L162.615 33.7825L162.615 33.7825L162.549 33.789ZM155.422 28.1795L155.408 28.2444L155.415 28.2451L155.422 28.1795ZM155.749 51.0135L155.8 50.9719C155.653 50.7907 155.509 50.6614 155.309 50.5648C155.112 50.4692 154.865 50.4075 154.516 50.3543L154.506 50.4196L154.496 50.4848C154.841 50.5374 155.073 50.5967 155.252 50.6835C155.429 50.7694 155.559 50.8842 155.697 51.0551L155.749 51.0135ZM154.506 50.4196L154.498 50.354C151.494 50.7166 148.985 50.75 147.033 50.4547C145.079 50.1592 143.693 49.5361 142.918 48.5957L142.867 48.6377L142.816 48.6797C143.621 49.6569 145.047 50.2877 147.013 50.5852C148.982 50.883 151.503 50.8484 154.514 50.4851L154.506 50.4196ZM155.749 51.0135L155.706 50.9632C154.667 51.8445 152.752 52.5845 149.945 53.1032C147.14 53.6214 143.453 53.9173 138.878 53.9173V53.9833V54.0492C143.458 54.0492 147.153 53.7532 149.969 53.233C152.781 52.7133 154.725 51.9684 155.791 51.0638L155.749 51.0135ZM138.878 53.9833L138.893 53.919C138.676 53.8686 138.516 53.787 138.401 53.6595C138.287 53.5319 138.212 53.3511 138.182 53.0897C138.122 52.5626 138.246 51.7348 138.55 50.4346L138.486 50.4196L138.422 50.4045C138.118 51.7019 137.988 52.5515 138.051 53.1046C138.083 53.3833 138.164 53.5933 138.303 53.7476C138.441 53.902 138.63 53.9934 138.863 54.0475L138.878 53.9833ZM138.486 50.4196L138.55 50.4353C141.541 38.2449 145.214 30.8559 151.673 25.127L151.629 25.0777L151.585 25.0283C145.098 30.7824 141.416 38.201 138.422 50.4038L138.486 50.4196ZM151.629 25.0777L151.673 25.127C152.884 24.0525 154.381 24.0316 155.932 24.3504L155.945 24.2858L155.958 24.2212C154.394 23.8994 152.844 23.9121 151.585 25.0283L151.629 25.0777ZM155.945 24.2858L155.922 24.3478C159.178 25.5307 163.345 28.5545 165.168 33.4819L165.23 33.459L165.292 33.4361C163.453 28.4644 159.251 25.4167 155.967 24.2238L155.945 24.2858ZM165.23 33.459L165.165 33.4709C165.715 36.4729 163.822 40.1301 160.571 42.7458C157.322 45.3588 152.733 46.918 147.918 45.7359L147.902 45.8L147.886 45.8641C152.749 47.0578 157.379 45.4823 160.653 42.8487C163.924 40.2178 165.857 36.5167 165.295 33.4472L165.23 33.459ZM147.902 45.8L147.914 45.7351C147.444 45.6491 147.199 45.4706 147.124 45.1735C147.085 45.0198 147.089 44.8274 147.14 44.5873C147.19 44.3475 147.287 44.0642 147.43 43.7308C148.003 42.3942 149.297 40.2936 151.228 37.0566L151.171 37.0227L151.115 36.9889C149.188 40.2194 147.886 42.3316 147.309 43.6788C147.164 44.0164 147.064 44.3085 147.011 44.5599C146.957 44.811 146.95 45.0256 146.996 45.206C147.09 45.577 147.399 45.7751 147.89 45.8649L147.902 45.8ZM151.171 37.0227L151.224 37.063C152.715 35.1271 153.415 34.3187 155.193 33.3186L155.16 33.2611L155.128 33.2035C153.327 34.2169 152.614 35.0421 151.119 36.9825L151.171 37.0227ZM155.16 33.2611L155.19 33.32C155.574 33.1262 155.868 33.1227 156.066 33.2871C156.271 33.4568 156.402 33.8256 156.402 34.449H156.468H156.534C156.534 33.8184 156.403 33.3953 156.15 33.1855C155.891 32.9704 155.531 32.9999 155.13 33.2021L155.16 33.2611ZM156.468 34.449H156.402V37.4847H156.468H156.534V34.449H156.468ZM156.468 37.4847L156.402 37.4786C156.384 37.6721 156.348 37.7792 156.286 37.8426C156.225 37.9048 156.126 37.9383 155.942 37.9467L155.945 38.0127L155.948 38.0786C156.139 38.0698 156.283 38.0347 156.381 37.9349C156.477 37.8364 156.515 37.688 156.534 37.4909L156.468 37.4847ZM155.945 38.0127V37.9467H154.376V38.0127V38.0787H155.945V38.0127ZM154.376 38.0127L154.357 37.9494C152.759 38.4198 151.718 39.911 151.176 41.2631C150.904 41.9404 150.755 42.5886 150.723 43.0662C150.708 43.304 150.721 43.5052 150.767 43.6477C150.79 43.7191 150.823 43.7809 150.869 43.8242C150.918 43.8694 150.978 43.8917 151.046 43.8859L151.041 43.8202L151.035 43.7544C151.005 43.7569 150.981 43.7483 150.959 43.7278C150.935 43.7054 150.912 43.6667 150.893 43.6072C150.854 43.4881 150.84 43.3062 150.855 43.0748C150.885 42.614 151.03 41.9796 151.298 41.3122C151.835 39.975 152.853 38.5295 154.394 38.076L154.376 38.0127ZM151.041 43.8202L151.038 43.8861C154.325 44.0188 157.349 42.8247 159.487 40.9328C161.624 39.0413 162.879 36.4479 162.615 33.7825L162.549 33.789L162.483 33.7955C162.742 36.4096 161.512 38.9638 159.399 40.834C157.287 42.7039 154.295 43.8855 151.043 43.7542L151.041 43.8202ZM162.549 33.789L162.615 33.7825C162.601 33.6415 162.51 33.4534 162.369 33.2385C162.227 33.0206 162.027 32.7657 161.784 32.4885C161.298 31.934 160.634 31.2862 159.899 30.6617C159.163 30.0372 158.354 29.4347 157.576 28.9714C156.8 28.5091 156.048 28.1814 155.429 28.1139L155.422 28.1795L155.415 28.2451C156.005 28.3095 156.737 28.6253 157.509 29.0848C158.278 29.5434 159.082 30.1412 159.813 30.7623C160.545 31.3835 161.203 32.0267 161.685 32.5755C161.925 32.85 162.121 33.0999 162.259 33.3107C162.399 33.5245 162.473 33.6891 162.483 33.7955L162.549 33.789ZM155.422 28.1795L155.435 28.1149C154.455 27.9102 153.298 28.436 152.093 29.4794C150.884 30.5256 149.614 32.1051 148.402 34.0427C145.978 37.9185 143.785 43.2388 142.802 48.6259L142.867 48.6377L142.932 48.6495C143.911 43.2796 146.099 37.9748 148.514 34.1127C149.721 32.1815 150.984 30.6138 152.179 29.5792C153.377 28.5417 154.492 28.0528 155.408 28.2441L155.422 28.1795Z" fill="black"/>
<path d="M53.3235 119.846C40.6526 135.223 19.2044 147.696 0 146.508C27.7837 132.913 36.033 124.136 45.4042 101.896C58.6732 75.7696 69.345 65.7214 94.0421 57.0194L124.202 49.1664C128.827 48.9271 129.877 50.6179 129.877 52.4662V125.06H76.4876L112.982 108.297V72.0001C89.0265 65.1371 57.4152 93.1188 53.3235 119.846Z" fill="black"/>
<path d="M198.121 22.7681C183.601 18.0424 176.216 10.3611 175.497 0V123.806H178.243V22.7681H198.121Z" fill="black" stroke="black" stroke-width="0.131989"/>
<path d="M284.303 138.72H201.325" stroke="black" stroke-width="0.923923" stroke-linecap="round"/>
<path d="M214.142 73.32V61.705C201.325 64.2128 182.689 57.6133 181.774 49.76C180.875 55.3004 179.812 57.5474 175.758 57.9433V73.32H214.142Z" fill="black" stroke="black" stroke-width="0.131989" stroke-linecap="round"/>
<path d="M192.366 80.3151H186.416V97.7377C184.053 98.8203 182.376 99.2016 179.027 99.6515C182.138 100.041 183.74 100.499 186.416 101.631V118.922H192.366V80.3151Z" fill="black"/>
<path d="M186.416 97.7377V80.3151H192.366V118.922H186.416V101.631M186.416 97.7377C184.053 98.8203 182.376 99.2016 179.027 99.6515C182.138 100.041 183.74 100.499 186.416 101.631M186.416 97.7377V101.631" stroke="black" stroke-width="0.131989"/>
<path d="M194.133 99.8498C210.219 105.393 219.504 84.803 200.868 80.6454C209.892 78.5996 219.438 87.5748 214.469 97.738L215.777 99.0579C200.018 96.7481 195.244 114.633 210.872 117.8C201.26 121.496 190.602 112.587 195.244 101.302L194.133 99.8498Z" fill="black" stroke="black" stroke-width="0.131989"/>
<path d="M196.486 50.3536C195.792 50.4595 195.529 50.5954 195.244 50.9476C197.349 52.7336 202.959 53.9173 212.114 53.9173C213.013 53.7084 213.114 52.9513 212.506 50.3536C209.513 38.157 205.837 30.7533 199.363 25.0117C198.128 23.9164 196.604 23.8996 195.047 24.2199C191.778 25.4078 187.593 28.4435 185.762 33.3931C184.65 39.4646 193.413 48.1099 203.09 45.7341C205.011 45.3825 203.679 43.4243 199.821 36.9568C198.328 35.0187 197.621 34.2019 195.832 33.1951C195.047 32.7992 194.524 33.1291 194.524 34.383V37.4188C194.561 37.8096 194.672 37.9295 195.047 37.9467H196.617C199.755 38.8707 200.736 43.8202 199.952 43.7543C193.413 44.0182 187.92 39.0027 188.443 33.7231C188.541 32.7332 193.151 28.3775 195.57 28.1136C199.363 27.3216 206.163 37.8148 208.125 48.5718C206.545 50.4894 202.502 51.0796 196.486 50.3536Z" fill="black"/>
<path d="M195.244 50.9476L195.201 50.9979L195.152 50.9561L195.192 50.906L195.244 50.9476ZM196.486 50.3536L196.476 50.2884L196.494 50.2881L196.486 50.3536ZM208.125 48.5718L208.19 48.5599L208.196 48.5901L208.176 48.6137L208.125 48.5718ZM212.114 53.9173L212.129 53.9816L212.121 53.9833H212.114V53.9173ZM212.506 50.3536L212.57 50.3379L212.57 50.3386L212.506 50.3536ZM199.363 25.0117L199.319 25.0611L199.319 25.0611L199.363 25.0117ZM195.047 24.2199L195.025 24.1572L195.034 24.1552L195.047 24.2199ZM185.762 33.3931L185.696 33.3811L185.7 33.3702L185.762 33.3931ZM203.09 45.7341L203.074 45.6699L203.078 45.6692L203.09 45.7341ZM199.821 36.9568L199.873 36.9163L199.877 36.923L199.821 36.9568ZM195.832 33.1951L195.862 33.1362L195.864 33.1376L195.832 33.1951ZM194.524 37.4188L194.458 37.425V37.4188H194.524ZM195.047 37.9467V38.0128L195.044 38.0127L195.047 37.9467ZM196.617 37.9467V37.8807H196.626L196.635 37.8834L196.617 37.9467ZM199.952 43.7543L199.949 43.6878L199.957 43.6885L199.952 43.7543ZM188.443 33.7231L188.377 33.7166L188.377 33.7166L188.443 33.7231ZM195.57 28.1136L195.584 28.1785L195.578 28.1792L195.57 28.1136ZM195.244 50.9476L195.192 50.906C195.339 50.7247 195.484 50.5955 195.683 50.4989C195.88 50.4032 196.127 50.3416 196.476 50.2884L196.486 50.3536L196.496 50.4189C196.151 50.4715 195.919 50.5308 195.74 50.6176C195.563 50.7035 195.434 50.8182 195.295 50.9892L195.244 50.9476ZM196.486 50.3536L196.494 50.2881C199.499 50.6507 202.007 50.6841 203.959 50.3888C205.913 50.0933 207.299 49.4702 208.074 48.5298L208.125 48.5718L208.176 48.6137C207.371 49.591 205.946 50.2218 203.979 50.5193C202.01 50.817 199.489 50.7825 196.478 50.4192L196.486 50.3536ZM195.244 50.9476L195.286 50.8973C196.325 51.7786 198.24 52.5186 201.047 53.0373C203.852 53.5555 207.539 53.8513 212.114 53.8513V53.9173V53.9833C207.534 53.9833 203.839 53.6873 201.023 53.1671C198.211 52.6474 196.267 51.9025 195.201 50.9979L195.244 50.9476ZM212.114 53.9173L212.099 53.8531C212.316 53.8027 212.477 53.7211 212.591 53.5936C212.706 53.466 212.78 53.2852 212.81 53.0238C212.87 52.4967 212.746 51.6689 212.442 50.3687L212.506 50.3536L212.57 50.3386C212.874 51.636 213.004 52.4855 212.941 53.0387C212.909 53.3174 212.828 53.5274 212.689 53.6817C212.551 53.8361 212.362 53.9275 212.129 53.9816L212.114 53.9173ZM212.506 50.3536L212.442 50.3694C209.451 38.1789 205.779 30.79 199.319 25.0611L199.363 25.0117L199.407 24.9624C205.895 30.7165 209.576 38.135 212.57 50.3379L212.506 50.3536ZM199.363 25.0117L199.319 25.0611C198.108 23.9866 196.611 23.9657 195.061 24.2845L195.047 24.2199L195.034 24.1552C196.598 23.8335 198.148 23.8462 199.407 24.9624L199.363 25.0117ZM195.047 24.2199L195.07 24.2819C191.814 25.4648 187.647 28.4886 185.824 33.416L185.762 33.3931L185.7 33.3702C187.539 28.3984 191.742 25.3508 195.025 24.1579L195.047 24.2199ZM185.762 33.3931L185.827 33.405C185.277 36.407 187.17 40.0642 190.422 42.6799C193.67 45.2928 198.259 46.8521 203.074 45.67L203.09 45.7341L203.106 45.7982C198.244 46.9919 193.613 45.4164 190.339 42.7828C187.068 40.1519 185.135 36.4508 185.697 33.3812L185.762 33.3931ZM203.09 45.7341L203.078 45.6692C203.548 45.5832 203.793 45.4047 203.868 45.1075C203.907 44.9539 203.903 44.7615 203.853 44.5214C203.802 44.2816 203.705 43.9983 203.562 43.6649C202.989 42.3283 201.695 40.2276 199.764 36.9906L199.821 36.9568L199.877 36.923C201.804 40.1535 203.106 42.2657 203.683 43.6129C203.828 43.9505 203.928 44.2426 203.982 44.494C204.035 44.7451 204.042 44.9596 203.996 45.1401C203.902 45.5111 203.593 45.7092 203.102 45.799L203.09 45.7341ZM199.821 36.9568L199.768 36.9971C198.277 35.0611 197.577 34.2528 195.8 33.2527L195.832 33.1951L195.864 33.1376C197.665 34.1509 198.378 34.9762 199.873 36.9166L199.821 36.9568ZM195.832 33.1951L195.802 33.2541C195.418 33.0603 195.124 33.0568 194.926 33.2212C194.721 33.3909 194.59 33.7597 194.59 34.383H194.524H194.458C194.458 33.7525 194.589 33.3294 194.842 33.1196C195.101 32.9045 195.461 32.934 195.862 33.1362L195.832 33.1951ZM194.524 34.383H194.59V37.4188H194.524H194.458V34.383H194.524ZM194.524 37.4188L194.59 37.4126C194.608 37.6062 194.644 37.7132 194.706 37.7767C194.767 37.8389 194.866 37.8724 195.05 37.8808L195.047 37.9467L195.044 38.0127C194.853 38.0039 194.709 37.9688 194.612 37.869C194.515 37.7705 194.477 37.6221 194.459 37.4249L194.524 37.4188ZM195.047 37.9467V37.8807H196.617V37.9467V38.0127H195.047V37.9467ZM196.617 37.9467L196.635 37.8834C198.233 38.3538 199.274 39.8451 199.817 41.1971C200.088 41.8744 200.238 42.5227 200.269 43.0003C200.284 43.2381 200.271 43.4393 200.225 43.5818C200.202 43.6531 200.169 43.7149 200.123 43.7583C200.075 43.8034 200.014 43.8258 199.946 43.82L199.952 43.7543L199.957 43.6885C199.987 43.691 200.011 43.6824 200.033 43.6618C200.057 43.6395 200.08 43.6008 200.099 43.5413C200.138 43.4222 200.152 43.2403 200.137 43.0089C200.107 42.5481 199.962 41.9136 199.694 41.2463C199.158 39.9091 198.139 38.4636 196.598 38.0101L196.617 37.9467ZM199.952 43.7543L199.954 43.8202C196.667 43.9529 193.643 42.7587 191.505 40.8669C189.368 38.9754 188.113 36.382 188.377 33.7166L188.443 33.7231L188.509 33.7296C188.25 36.3437 189.48 38.8979 191.593 40.7681C193.706 42.6379 196.697 43.8196 199.949 43.6883L199.952 43.7543ZM188.443 33.7231L188.377 33.7166C188.391 33.5755 188.482 33.3875 188.623 33.1726C188.765 32.9547 188.965 32.6998 189.208 32.4226C189.695 31.8681 190.358 31.2203 191.094 30.5958C191.829 29.9713 192.638 29.3688 193.416 28.9055C194.192 28.4432 194.944 28.1155 195.563 28.048L195.57 28.1136L195.578 28.1792C194.987 28.2436 194.255 28.5594 193.484 29.0189C192.714 29.4775 191.911 30.0753 191.179 30.6964C190.447 31.3175 189.789 31.9608 189.307 32.5096C189.067 32.7841 188.871 33.0339 188.733 33.2448C188.594 33.4586 188.519 33.6232 188.509 33.7296L188.443 33.7231ZM195.57 28.1136L195.557 28.049C196.537 27.8443 197.695 28.3701 198.899 29.4135C200.108 30.4597 201.379 32.0391 202.59 33.9768C205.014 37.8525 207.208 43.1729 208.19 48.5599L208.125 48.5718L208.06 48.5836C207.081 43.2136 204.894 37.9089 202.478 34.0468C201.271 32.1156 200.008 30.5479 198.813 29.5132C197.615 28.4757 196.5 27.9869 195.584 28.1782L195.57 28.1136Z" fill="black"/>
<path d="M297.676 119.78C310.347 135.157 331.796 147.63 351 146.442C323.216 132.847 314.967 124.07 305.596 101.829C292.327 75.7034 281.655 65.6552 256.958 56.9532L226.798 49.1003C222.173 48.861 221.123 50.5518 221.123 52.4V124.994H274.512L238.017 108.231V71.9339C261.973 65.0709 293.585 93.0527 297.676 119.78Z" fill="black"/>
<path d="M158.198 146.328V134.768H154.45V132.592C156.933 132.495 158.327 131.512 158.633 129.641H161.511V146.328H158.198ZM170.909 146.715C168.797 146.715 167.112 145.933 165.855 144.369C164.613 142.805 163.993 140.701 163.993 138.057C163.993 135.413 164.621 133.309 165.879 131.745C167.136 130.181 168.821 129.4 170.933 129.4C173.061 129.4 174.738 130.181 175.963 131.745C177.205 133.293 177.825 135.397 177.825 138.057C177.825 140.701 177.205 142.805 175.963 144.369C174.738 145.933 173.053 146.715 170.909 146.715ZM170.933 143.91C173.239 143.91 174.391 141.959 174.391 138.057C174.391 136.219 174.109 134.784 173.545 133.753C172.981 132.721 172.11 132.205 170.933 132.205C169.74 132.205 168.853 132.721 168.273 133.753C167.709 134.784 167.427 136.219 167.427 138.057C167.427 139.895 167.709 141.33 168.273 142.362C168.853 143.394 169.74 143.91 170.933 143.91ZM178.945 146.328V142.821H182.476V146.328H178.945ZM190.511 146.715C188.399 146.715 186.714 145.933 185.456 144.369C184.215 142.805 183.594 140.701 183.594 138.057C183.594 135.413 184.223 133.309 185.481 131.745C186.738 130.181 188.423 129.4 190.535 129.4C192.663 129.4 194.34 130.181 195.565 131.745C196.806 133.293 197.427 135.397 197.427 138.057C197.427 140.701 196.806 142.805 195.565 144.369C194.34 145.933 192.655 146.715 190.511 146.715ZM190.535 143.91C192.84 143.91 193.993 141.959 193.993 138.057C193.993 136.219 193.711 134.784 193.147 133.753C192.582 132.721 191.712 132.205 190.535 132.205C189.342 132.205 188.455 132.721 187.875 133.753C187.31 134.784 187.028 136.219 187.028 138.057C187.028 139.895 187.31 141.33 187.875 142.362C188.455 143.394 189.342 143.91 190.535 143.91Z" fill="black"/>
</svg>
