<svg width="96" height="38" viewBox="0 0 96 38" fill="none" xmlns="http://www.w3.org/2000/svg">
<path d="M0 37.2599V1.75654C0 0.425828 0.425827 0 1.75654 0H13.6265C14.9572 0 15.383 0.425828 15.383 1.75654V37.2599H8.03748V26.8271H7.07937V37.2599H0ZM7.07937 6.33418V20.4397H8.03748V6.33418H7.07937Z" fill="black"/>
<path d="M24.1998 14.9039H30.4807C31.8114 14.9039 32.2373 15.3298 32.2373 16.6605V35.5033C32.2373 36.834 31.8114 37.2599 30.4807 37.2599H18.6108C17.2801 37.2599 16.8543 36.834 16.8543 35.5033V22.2495H23.9336V30.9257H24.945V21.2381H18.6108C17.2801 21.2381 16.8543 20.8655 16.8543 19.5348V1.75654C16.8543 0.425828 17.2801 0 18.6108 0H30.4807C31.8114 0 32.2373 0.425828 32.2373 1.75654V13.9458H25.1579V6.33418H24.1998V14.9039Z" fill="black"/>
<path d="M42.8106 6.33418V37.2599H35.4651V6.33418H33.3359V0H44.9397V6.33418H42.8106Z" fill="black"/>
<path d="M53.386 37.2599H46.0405V0H53.386V14.9572H54.3441V0H61.6896V37.2599H54.3441V21.2913H53.386V37.2599Z" fill="black"/>
<path d="M70.5001 6.33418V15.9685H71.4583V6.33418H70.5001ZM70.5001 37.2599H63.1546V0H77.0472C78.3779 0 78.8038 0.425828 78.8038 1.75654V17.1395C78.8038 18.4702 78.3779 18.8961 77.2069 18.8961H76.9408V19.588H77.2069C78.3779 19.588 78.8038 20.0139 78.8038 21.3446V37.2599H71.4583V22.3027H70.5001V37.2599Z" fill="black"/>
<path d="M80.2688 37.2599V1.75654C80.2688 0.425828 80.6946 0 82.0253 0H93.8953C95.226 0 95.6518 0.425828 95.6518 1.75654V37.2599H88.3063V26.8271H87.3482V37.2599H80.2688ZM87.3482 6.33418V20.4397H88.3063V6.33418H87.3482Z" fill="black"/>
</svg>
