<svg width="114" height="168" viewBox="0 0 114 168" fill="none" xmlns="http://www.w3.org/2000/svg">
<path d="M6.03418 1.3877H46.8086C49.0294 1.38772 50.0359 1.76474 50.5566 2.28711C51.0786 2.81085 51.4541 3.8236 51.4541 6.05273V127.01H28.9971V91.0586H22.9307V166.294H1.3877V6.05273C1.38773 3.82396 1.76337 2.81092 2.28516 2.28711C2.80589 1.76473 3.8133 1.3877 6.03418 1.3877ZM105.07 1.3877C108.211 1.3877 109.808 1.90399 110.692 2.79102C111.578 3.67951 112.094 5.28514 112.094 8.4375V119.96C112.094 123.112 111.578 124.718 110.692 125.606C109.808 126.493 108.211 127.01 105.07 127.01H61.1123V1.3877H105.07ZM83.5693 107.957H89.6367V20.4395H83.5693V107.957ZM22.9307 71.8232H28.9971V20.4395H22.9307V71.8232Z" fill="white" stroke="#9F595E" stroke-width="2.77556"/>
</svg>
