<svg width="124" height="172" viewBox="0 0 124 172" fill="none" xmlns="http://www.w3.org/2000/svg">
<path d="M115.571 1.74023C117.844 1.74026 119.762 2.08592 121.048 3.37207C122.334 4.65827 122.679 6.57554 122.679 8.84863V170.287H95.7031V93.5791H90.7773V128.314H64.6875V8.84863C64.6875 6.57535 65.0331 4.65827 66.3193 3.37207C67.6055 2.08587 69.5226 1.74023 71.7959 1.74023H115.571ZM53.4287 1.74023C55.7018 1.74027 57.6182 2.08604 58.9043 3.37207C60.1905 4.65828 60.5361 6.57535 60.5361 8.84863V63.2744H34.4463V25.3486H28.7158V107.732H34.4463V66.9717H60.5361V124.232C60.5361 126.506 60.1905 128.423 58.9043 129.709C57.6182 130.995 55.7017 131.341 53.4287 131.341H8.84863C6.57537 131.341 4.65827 130.995 3.37207 129.709C2.08587 128.423 1.74023 126.506 1.74023 124.232V8.84863C1.74023 6.57535 2.08587 4.65828 3.37207 3.37207C4.65828 2.08587 6.57535 1.74023 8.84863 1.74023H53.4287ZM90.7773 69.793H95.7031V25.3486H90.7773V69.793Z" fill="white" stroke="#B18DBE" stroke-width="2.51956"/>
</svg>
