<svg width="111" height="125" viewBox="0 0 111 125" fill="none" xmlns="http://www.w3.org/2000/svg">
<mask id="path-1-inside-1_1304_15515" fill="white">
<path d="M25.2089 21.3496V103.808H28.2915V64.1198H51.9885V119.028C51.9885 121.339 51.539 122.945 50.6399 123.844C49.8693 124.615 48.328 125 46.0161 125H6.71369C4.40179 125 2.7963 124.615 1.89722 123.844C1.12659 122.945 0.741271 121.339 0.741271 119.028V6.12955C0.741271 3.81765 1.12659 2.27638 1.89722 1.50574C2.7963 0.606673 4.40179 0.157138 6.71369 0.157138H46.0161C48.328 0.157138 49.8693 0.606673 50.6399 1.50574C51.539 2.27638 51.9885 3.81765 51.9885 6.12955V61.0373H28.2915V21.3496H25.2089ZM83.4355 21.3496V103.808H86.5181V64.1198H110.215V119.028C110.215 121.339 109.766 122.945 108.866 123.844C108.096 124.615 106.555 125 104.243 125H64.9403C62.6284 125 61.0229 124.615 60.1238 123.844C59.3532 122.945 58.9679 121.339 58.9679 119.028V6.12955C58.9679 3.81765 59.3532 2.27638 60.1238 1.50574C61.0229 0.606673 62.6284 0.157138 64.9403 0.157138H104.243C106.555 0.157138 108.096 0.606673 108.866 1.50574C109.766 2.27638 110.215 3.81765 110.215 6.12955V61.0373H86.5181V21.3496H83.4355Z"/>
</mask>
<path d="M25.2089 21.3496V103.808H28.2915V64.1198H51.9885V119.028C51.9885 121.339 51.539 122.945 50.6399 123.844C49.8693 124.615 48.328 125 46.0161 125H6.71369C4.40179 125 2.7963 124.615 1.89722 123.844C1.12659 122.945 0.741271 121.339 0.741271 119.028V6.12955C0.741271 3.81765 1.12659 2.27638 1.89722 1.50574C2.7963 0.606673 4.40179 0.157138 6.71369 0.157138H46.0161C48.328 0.157138 49.8693 0.606673 50.6399 1.50574C51.539 2.27638 51.9885 3.81765 51.9885 6.12955V61.0373H28.2915V21.3496H25.2089ZM83.4355 21.3496V103.808H86.5181V64.1198H110.215V119.028C110.215 121.339 109.766 122.945 108.866 123.844C108.096 124.615 106.555 125 104.243 125H64.9403C62.6284 125 61.0229 124.615 60.1238 123.844C59.3532 122.945 58.9679 121.339 58.9679 119.028V6.12955C58.9679 3.81765 59.3532 2.27638 60.1238 1.50574C61.0229 0.606673 62.6284 0.157138 64.9403 0.157138H104.243C106.555 0.157138 108.096 0.606673 108.866 1.50574C109.766 2.27638 110.215 3.81765 110.215 6.12955V61.0373H86.5181V21.3496H83.4355Z" fill="white"/>
<path d="M25.2089 21.3496V18.7987H22.658V21.3496H25.2089ZM25.2089 103.808H22.658V106.358H25.2089V103.808ZM28.2915 103.808V106.358H30.8424V103.808H28.2915ZM28.2915 64.1198V61.569H25.7406V64.1198H28.2915ZM51.9885 64.1198H54.5394V61.569H51.9885V64.1198ZM50.6399 123.844L52.4436 125.648L52.4436 125.648L50.6399 123.844ZM1.89722 123.844L-0.039552 125.504L0.0881475 125.653L0.23713 125.781L1.89722 123.844ZM1.89722 1.50574L0.0934802 -0.298008L0.0934788 -0.298006L1.89722 1.50574ZM50.6399 1.50574L48.7031 3.16584L48.8308 3.31482L48.9798 3.44252L50.6399 1.50574ZM51.9885 61.0373V63.5882H54.5394V61.0373H51.9885ZM28.2915 61.0373H25.7406V63.5882H28.2915V61.0373ZM28.2915 21.3496H30.8424V18.7987H28.2915V21.3496ZM25.2089 21.3496H22.658V103.808H25.2089H27.7598V21.3496H25.2089ZM25.2089 103.808V106.358H28.2915V103.808V101.257H25.2089V103.808ZM28.2915 103.808H30.8424V64.1198H28.2915H25.7406V103.808H28.2915ZM28.2915 64.1198V66.6707H51.9885V64.1198V61.569H28.2915V64.1198ZM51.9885 64.1198H49.4376V119.028H51.9885H54.5394V64.1198H51.9885ZM51.9885 119.028H49.4376C49.4376 121.166 48.991 121.885 48.8361 122.04L50.6399 123.844L52.4436 125.648C54.087 124.004 54.5394 121.513 54.5394 119.028H51.9885ZM50.6399 123.844L48.8361 122.04C48.8943 121.982 48.8022 122.108 48.2873 122.236C47.7878 122.361 47.0489 122.449 46.0161 122.449V125V127.551C47.2951 127.551 48.4828 127.446 49.5246 127.186C50.551 126.929 51.6148 126.477 52.4436 125.648L50.6399 123.844ZM46.0161 125V122.449H6.71369V125V127.551H46.0161V125ZM6.71369 125V122.449C4.51196 122.449 3.72025 122.047 3.55732 121.907L1.89722 123.844L0.23713 125.781C1.87235 127.182 4.29162 127.551 6.71369 127.551V125ZM1.89722 123.844L3.834 122.184C3.69434 122.021 3.29215 121.229 3.29215 119.028H0.741271H-1.80961C-1.80961 121.45 -1.44117 123.869 -0.039552 125.504L1.89722 123.844ZM0.741271 119.028H3.29215V6.12955H0.741271H-1.80961V119.028H0.741271ZM0.741271 6.12955H3.29215C3.29215 5.09672 3.38011 4.35782 3.50498 3.85835C3.63371 3.34344 3.75917 3.25129 3.70097 3.30949L1.89722 1.50574L0.0934788 -0.298006C-0.73536 0.53083 -1.18787 1.59463 -1.44446 2.62099C-1.70491 3.66279 -1.80961 4.85048 -1.80961 6.12955H0.741271ZM1.89722 1.50574L3.70097 3.30949C3.85579 3.15467 4.57516 2.70802 6.71369 2.70802V0.157138V-2.39375C4.22842 -2.39375 1.7368 -1.94132 0.0934802 -0.298008L1.89722 1.50574ZM6.71369 0.157138V2.70802H46.0161V0.157138V-2.39375H6.71369V0.157138ZM46.0161 0.157138V2.70802C47.0268 2.70802 47.7304 2.80859 48.1917 2.94314C48.6514 3.07721 48.7359 3.20415 48.7031 3.16584L50.6399 1.50574L52.5767 -0.154356C51.0212 -1.96905 48.4351 -2.39375 46.0161 -2.39375V0.157138ZM50.6399 1.50574L48.9798 3.44252C48.9415 3.40969 49.0684 3.49425 49.2025 3.95392C49.337 4.41522 49.4376 5.11886 49.4376 6.12955H51.9885H54.5394C54.5394 3.71053 54.1147 1.12442 52.3 -0.431034L50.6399 1.50574ZM51.9885 6.12955H49.4376V61.0373H51.9885H54.5394V6.12955H51.9885ZM51.9885 61.0373V58.4864H28.2915V61.0373V63.5882H51.9885V61.0373ZM28.2915 61.0373H30.8424V21.3496H28.2915H25.7406V61.0373H28.2915ZM28.2915 21.3496V18.7987H25.2089V21.3496V23.9005H28.2915V21.3496ZM83.4355 21.3496V18.7987H80.8846V21.3496H83.4355ZM83.4355 103.808H80.8846V106.358H83.4355V103.808ZM86.5181 103.808V106.358H89.0689V103.808H86.5181ZM86.5181 64.1198V61.569H83.9672V64.1198H86.5181ZM110.215 64.1198H112.766V61.569H110.215V64.1198ZM108.866 123.844L110.67 125.648L110.67 125.648L108.866 123.844ZM60.1238 123.844L58.187 125.504L58.3147 125.653L58.4637 125.781L60.1238 123.844ZM60.1238 1.50574L58.3201 -0.298008L58.3201 -0.298006L60.1238 1.50574ZM108.866 1.50574L106.93 3.16584L107.057 3.31482L107.206 3.44252L108.866 1.50574ZM110.215 61.0373V63.5882H112.766V61.0373H110.215ZM86.5181 61.0373H83.9672V63.5882H86.5181V61.0373ZM86.5181 21.3496H89.0689V18.7987H86.5181V21.3496ZM83.4355 21.3496H80.8846V103.808H83.4355H85.9864V21.3496H83.4355ZM83.4355 103.808V106.358H86.5181V103.808V101.257H83.4355V103.808ZM86.5181 103.808H89.0689V64.1198H86.5181H83.9672V103.808H86.5181ZM86.5181 64.1198V66.6707H110.215V64.1198V61.569H86.5181V64.1198ZM110.215 64.1198H107.664V119.028H110.215H112.766V64.1198H110.215ZM110.215 119.028H107.664C107.664 121.166 107.218 121.885 107.063 122.04L108.866 123.844L110.67 125.648C112.314 124.004 112.766 121.513 112.766 119.028H110.215ZM108.866 123.844L107.063 122.04C107.121 121.982 107.029 122.108 106.514 122.236C106.014 122.361 105.275 122.449 104.243 122.449V125V127.551C105.522 127.551 106.709 127.446 107.751 127.186C108.778 126.929 109.841 126.477 110.67 125.648L108.866 123.844ZM104.243 125V122.449H64.9403V125V127.551H104.243V125ZM64.9403 125V122.449C62.7385 122.449 61.9468 122.047 61.7839 121.907L60.1238 123.844L58.4637 125.781C60.0989 127.182 62.5182 127.551 64.9403 127.551V125ZM60.1238 123.844L62.0606 122.184C61.9209 122.021 61.5187 121.229 61.5187 119.028H58.9679H56.417C56.417 121.45 56.7854 123.869 58.187 125.504L60.1238 123.844ZM58.9679 119.028H61.5187V6.12955H58.9679H56.417V119.028H58.9679ZM58.9679 6.12955H61.5187C61.5187 5.09672 61.6067 4.35782 61.7316 3.85835C61.8603 3.34344 61.9858 3.25129 61.9276 3.30949L60.1238 1.50574L58.3201 -0.298006C57.4912 0.53083 57.0387 1.59463 56.7821 2.62099C56.5217 3.66279 56.417 4.85048 56.417 6.12955H58.9679ZM60.1238 1.50574L61.9276 3.30949C62.0824 3.15467 62.8017 2.70802 64.9403 2.70802V0.157138V-2.39375C62.455 -2.39375 59.9634 -1.94132 58.3201 -0.298008L60.1238 1.50574ZM64.9403 0.157138V2.70802H104.243V0.157138V-2.39375H64.9403V0.157138ZM104.243 0.157138V2.70802C105.253 2.70802 105.957 2.80859 106.418 2.94314C106.878 3.07721 106.963 3.20415 106.93 3.16584L108.866 1.50574L110.803 -0.154356C109.248 -1.96905 106.662 -2.39375 104.243 -2.39375V0.157138ZM108.866 1.50574L107.206 3.44252C107.168 3.40969 107.295 3.49425 107.429 3.95392C107.564 4.41522 107.664 5.11886 107.664 6.12955H110.215H112.766C112.766 3.71053 112.341 1.12442 110.527 -0.431034L108.866 1.50574ZM110.215 6.12955H107.664V61.0373H110.215H112.766V6.12955H110.215ZM110.215 61.0373V58.4864H86.5181V61.0373V63.5882H110.215V61.0373ZM86.5181 61.0373H89.0689V21.3496H86.5181H83.9672V61.0373H86.5181ZM86.5181 21.3496V18.7987H83.4355V21.3496V23.9005H86.5181V21.3496Z" fill="#5C684C" mask="url(#path-1-inside-1_1304_15515)"/>
</svg>
