<svg width="253" height="137" viewBox="0 0 253 137" fill="none" xmlns="http://www.w3.org/2000/svg">
<mask id="path-1-inside-1_1304_15503" fill="white">
<path d="M27.7187 113.871H31.2172V69.1677H57.0673V130.586C57.0673 135.445 55.5124 137 50.6533 137H7.31066C2.45162 137 0.896725 135.445 0.896725 130.586V7.36067C0.896725 2.50163 2.45162 0.94673 7.31066 0.94673H50.6533C55.5124 0.94673 57.0673 2.50163 57.0673 7.36067V65.6692H31.2172V24.0758H27.7187V113.871ZM91.2051 0.94673V137H64.3832V0.94673H91.2051ZM98.6395 0.94673H125.461V113.871H128.96V0.94673H154.81V125.533C154.81 134.473 152.283 137 143.343 137H98.6395V0.94673ZM188.948 0.94673V137H162.126V0.94673H188.948ZM196.382 137V0.94673H223.204V113.871H226.703V53.4244H252.553V137H196.382Z"/>
</mask>
<path d="M27.7187 113.871H31.2172V69.1677H57.0673V130.586C57.0673 135.445 55.5124 137 50.6533 137H7.31066C2.45162 137 0.896725 135.445 0.896725 130.586V7.36067C0.896725 2.50163 2.45162 0.94673 7.31066 0.94673H50.6533C55.5124 0.94673 57.0673 2.50163 57.0673 7.36067V65.6692H31.2172V24.0758H27.7187V113.871ZM91.2051 0.94673V137H64.3832V0.94673H91.2051ZM98.6395 0.94673H125.461V113.871H128.96V0.94673H154.81V125.533C154.81 134.473 152.283 137 143.343 137H98.6395V0.94673ZM188.948 0.94673V137H162.126V0.94673H188.948ZM196.382 137V0.94673H223.204V113.871H226.703V53.4244H252.553V137H196.382Z" fill="white"/>
<path d="M27.7187 113.871H25.1452V116.444H27.7187V113.871ZM31.2172 113.871V116.444H33.7906V113.871H31.2172ZM31.2172 69.1677V66.5943H28.6437V69.1677H31.2172ZM57.0673 69.1677H59.6407V66.5943H57.0673V69.1677ZM57.0673 65.6692V68.2426H59.6407V65.6692H57.0673ZM31.2172 65.6692H28.6437V68.2426H31.2172V65.6692ZM31.2172 24.0758H33.7906V21.5024H31.2172V24.0758ZM27.7187 24.0758V21.5024H25.1452V24.0758H27.7187ZM27.7187 113.871V116.444H31.2172V113.871V111.298H27.7187V113.871ZM31.2172 113.871H33.7906V69.1677H31.2172H28.6437V113.871H31.2172ZM31.2172 69.1677V71.7412H57.0673V69.1677V66.5943H31.2172V69.1677ZM57.0673 69.1677H54.4939V130.586H57.0673H59.6407V69.1677H57.0673ZM57.0673 130.586H54.4939C54.4939 132.897 54.0868 133.571 53.8628 133.795C53.6387 134.02 52.9643 134.427 50.6533 134.427V137V139.573C53.2014 139.573 55.734 139.203 57.5022 137.435C59.2703 135.667 59.6407 133.134 59.6407 130.586H57.0673ZM50.6533 137V134.427H7.31066V137V139.573H50.6533V137ZM7.31066 137V134.427C4.99969 134.427 4.32528 134.02 4.10124 133.795C3.87721 133.571 3.47016 132.897 3.47016 130.586H0.896725H-1.67671C-1.67671 133.134 -1.30631 135.667 0.461861 137.435C2.23003 139.203 4.76259 139.573 7.31066 139.573V137ZM0.896725 130.586H3.47016V7.36067H0.896725H-1.67671V130.586H0.896725ZM0.896725 7.36067H3.47016C3.47016 5.0497 3.87721 4.37529 4.10124 4.15125C4.32528 3.92721 4.99969 3.52016 7.31066 3.52016V0.94673V-1.6267C4.76259 -1.6267 2.23003 -1.2563 0.461861 0.511867C-1.30631 2.28004 -1.67671 4.8126 -1.67671 7.36067H0.896725ZM7.31066 0.94673V3.52016H50.6533V0.94673V-1.6267H7.31066V0.94673ZM50.6533 0.94673V3.52016C52.9643 3.52016 53.6387 3.92721 53.8628 4.15125C54.0868 4.37529 54.4939 5.0497 54.4939 7.36067H57.0673H59.6407C59.6407 4.8126 59.2703 2.28004 57.5022 0.511868C55.734 -1.2563 53.2014 -1.6267 50.6533 -1.6267V0.94673ZM57.0673 7.36067H54.4939V65.6692H57.0673H59.6407V7.36067H57.0673ZM57.0673 65.6692V63.0958H31.2172V65.6692V68.2426H57.0673V65.6692ZM31.2172 65.6692H33.7906V24.0758H31.2172H28.6437V65.6692H31.2172ZM31.2172 24.0758V21.5024H27.7187V24.0758V26.6492H31.2172V24.0758ZM27.7187 24.0758H25.1452V113.871H27.7187H30.2921V24.0758H27.7187ZM91.2051 0.94673H93.7785V-1.6267H91.2051V0.94673ZM91.2051 137V139.573H93.7785V137H91.2051ZM64.3832 137H61.8098V139.573H64.3832V137ZM64.3832 0.94673V-1.6267H61.8098V0.94673H64.3832ZM91.2051 0.94673H88.6317V137H91.2051H93.7785V0.94673H91.2051ZM91.2051 137V134.427H64.3832V137V139.573H91.2051V137ZM64.3832 137H66.9566V0.94673H64.3832H61.8098V137H64.3832ZM64.3832 0.94673V3.52016H91.2051V0.94673V-1.6267H64.3832V0.94673ZM98.6395 0.94673V-1.6267H96.066V0.94673H98.6395ZM125.461 0.94673H128.035V-1.6267H125.461V0.94673ZM125.461 113.871H122.888V116.444H125.461V113.871ZM128.96 113.871V116.444H131.533V113.871H128.96ZM128.96 0.94673V-1.6267H126.386V0.94673H128.96ZM154.81 0.94673H157.383V-1.6267H154.81V0.94673ZM98.6395 137H96.066V139.573H98.6395V137ZM98.6395 0.94673V3.52016H125.461V0.94673V-1.6267H98.6395V0.94673ZM125.461 0.94673H122.888V113.871H125.461H128.035V0.94673H125.461ZM125.461 113.871V116.444H128.96V113.871V111.298H125.461V113.871ZM128.96 113.871H131.533V0.94673H128.96H126.386V113.871H128.96ZM128.96 0.94673V3.52016H154.81V0.94673V-1.6267H128.96V0.94673ZM154.81 0.94673H152.237V125.533H154.81H157.383V0.94673H154.81ZM154.81 125.533H152.237C152.237 129.955 151.562 131.847 150.609 132.799C149.657 133.752 147.765 134.427 143.343 134.427V137V139.573C147.861 139.573 151.703 138.985 154.249 136.439C156.795 133.893 157.383 130.051 157.383 125.533H154.81ZM143.343 137V134.427H98.6395V137V139.573H143.343V137ZM98.6395 137H101.213V0.94673H98.6395H96.066V137H98.6395ZM188.948 0.94673H191.521V-1.6267H188.948V0.94673ZM188.948 137V139.573H191.521V137H188.948ZM162.126 137H159.552V139.573H162.126V137ZM162.126 0.94673V-1.6267H159.552V0.94673H162.126ZM188.948 0.94673H186.374V137H188.948H191.521V0.94673H188.948ZM188.948 137V134.427H162.126V137V139.573H188.948V137ZM162.126 137H164.699V0.94673H162.126H159.552V137H162.126ZM162.126 0.94673V3.52016H188.948V0.94673V-1.6267H162.126V0.94673ZM196.382 137H193.809V139.573H196.382V137ZM196.382 0.94673V-1.6267H193.809V0.94673H196.382ZM223.204 0.94673H225.778V-1.6267H223.204V0.94673ZM223.204 113.871H220.631V116.444H223.204V113.871ZM226.703 113.871V116.444H229.276V113.871H226.703ZM226.703 53.4244V50.851H224.129V53.4244H226.703ZM252.553 53.4244H255.126V50.851H252.553V53.4244ZM252.553 137V139.573H255.126V137H252.553ZM196.382 137H198.956V0.94673H196.382H193.809V137H196.382ZM196.382 0.94673V3.52016H223.204V0.94673V-1.6267H196.382V0.94673ZM223.204 0.94673H220.631V113.871H223.204H225.778V0.94673H223.204ZM223.204 113.871V116.444H226.703V113.871V111.298H223.204V113.871ZM226.703 113.871H229.276V53.4244H226.703H224.129V113.871H226.703ZM226.703 53.4244V55.9979H252.553V53.4244V50.851H226.703V53.4244ZM252.553 53.4244H249.979V137H252.553H255.126V53.4244H252.553ZM252.553 137V134.427H196.382V137V139.573H252.553V137Z" fill="#828688" mask="url(#path-1-inside-1_1304_15503)"/>
</svg>
