<svg width="402" height="459" viewBox="0 0 402 459" fill="none" xmlns="http://www.w3.org/2000/svg">
<mask id="path-1-inside-1_1304_15560" fill="white">
<path d="M90.4999 78.526V381.208H101.815V235.525H188.801V437.077C188.801 454.05 183.85 459 166.878 459H22.6086C5.63583 459 0.685422 454.05 0.685422 437.077V22.6572C0.685422 5.68438 5.63583 0.733995 22.6086 0.733995H166.878C183.85 0.733995 188.801 5.68438 188.801 22.6572V224.209H101.815V78.526H90.4999ZM312.014 268.763H235.636C218.663 268.763 213.713 263.813 213.713 246.84V22.6572C213.713 5.68438 218.663 0.733995 235.636 0.733995H379.905C396.878 0.733995 401.828 5.68438 401.828 22.6572V179.656H314.843V78.526H303.528V190.971H379.905C396.878 190.971 401.828 195.921 401.828 212.894V437.077C401.828 454.05 396.878 459 379.905 459H235.636C218.663 459 213.713 454.05 213.713 437.077V280.078H300.699V381.208H312.014V268.763Z"/>
</mask>
<path d="M90.4999 78.526V381.208H101.815V235.525H188.801V437.077C188.801 454.05 183.85 459 166.878 459H22.6086C5.63583 459 0.685422 454.05 0.685422 437.077V22.6572C0.685422 5.68438 5.63583 0.733995 22.6086 0.733995H166.878C183.85 0.733995 188.801 5.68438 188.801 22.6572V224.209H101.815V78.526H90.4999ZM312.014 268.763H235.636C218.663 268.763 213.713 263.813 213.713 246.84V22.6572C213.713 5.68438 218.663 0.733995 235.636 0.733995H379.905C396.878 0.733995 401.828 5.68438 401.828 22.6572V179.656H314.843V78.526H303.528V190.971H379.905C396.878 190.971 401.828 195.921 401.828 212.894V437.077C401.828 454.05 396.878 459 379.905 459H235.636C218.663 459 213.713 454.05 213.713 437.077V280.078H300.699V381.208H312.014V268.763Z" fill="white"/>
<path d="M90.4999 78.526V69.1624H81.1363V78.526H90.4999ZM90.4999 381.208H81.1363V390.572H90.4999V381.208ZM101.815 381.208V390.572H111.179V381.208H101.815ZM101.815 235.525V226.161H92.4515V235.525H101.815ZM188.801 235.525H198.164V226.161H188.801V235.525ZM188.801 224.209V233.573H198.164V224.209H188.801ZM101.815 224.209H92.4515V233.573H101.815V224.209ZM101.815 78.526H111.179V69.1624H101.815V78.526ZM90.4999 78.526H81.1363V381.208H90.4999H99.8635V78.526H90.4999ZM90.4999 381.208V390.572H101.815V381.208V371.844H90.4999V381.208ZM101.815 381.208H111.179V235.525H101.815H92.4515V381.208H101.815ZM101.815 235.525V244.888H188.801V235.525V226.161H101.815V235.525ZM188.801 235.525H179.437V437.077H188.801H198.164V235.525H188.801ZM188.801 437.077H179.437C179.437 445.325 178.064 447.301 177.583 447.782C177.101 448.264 175.126 449.636 166.878 449.636V459V468.364C175.602 468.364 184.588 467.261 190.825 461.024C197.062 454.787 198.164 445.801 198.164 437.077H188.801ZM166.878 459V449.636H22.6086V459V468.364H166.878V459ZM22.6086 459V449.636C14.3602 449.636 12.3848 448.264 11.9033 447.782C11.4219 447.301 10.0491 445.325 10.0491 437.077H0.685422H-8.67821C-8.67821 445.801 -7.57581 454.787 -1.33887 461.024C4.89808 467.261 13.8843 468.364 22.6086 468.364V459ZM0.685422 437.077H10.0491V22.6572H0.685422H-8.67821V437.077H0.685422ZM0.685422 22.6572H10.0491C10.0491 14.4087 11.4219 12.4333 11.9033 11.9519C12.3848 11.4704 14.3602 10.0976 22.6086 10.0976V0.733995V-8.62964C13.8843 -8.62964 4.89809 -7.52724 -1.33886 -1.29031C-7.57581 4.94663 -8.67821 13.9328 -8.67821 22.6572H0.685422ZM22.6086 0.733995V10.0976H166.878V0.733995V-8.62964H22.6086V0.733995ZM166.878 0.733995V10.0976C175.126 10.0976 177.101 11.4704 177.583 11.9519C178.064 12.4333 179.437 14.4087 179.437 22.6572H188.801H198.164C198.164 13.9328 197.062 4.94663 190.825 -1.29031C184.588 -7.52724 175.602 -8.62964 166.878 -8.62964V0.733995ZM188.801 22.6572H179.437V224.209H188.801H198.164V22.6572H188.801ZM188.801 224.209V214.846H101.815V224.209V233.573H188.801V224.209ZM101.815 224.209H111.179V78.526H101.815H92.4515V224.209H101.815ZM101.815 78.526V69.1624H90.4999V78.526V87.8897H101.815V78.526ZM312.014 268.763H321.378V259.399H312.014V268.763ZM401.828 179.656V189.019H411.192V179.656H401.828ZM314.843 179.656H305.479V189.019H314.843V179.656ZM314.843 78.526H324.206V69.1624H314.843V78.526ZM303.528 78.526V69.1624H294.164V78.526H303.528ZM303.528 190.971H294.164V200.335H303.528V190.971ZM213.713 280.078V270.715H204.349V280.078H213.713ZM300.699 280.078H310.062V270.715H300.699V280.078ZM300.699 381.208H291.335V390.572H300.699V381.208ZM312.014 381.208V390.572H321.378V381.208H312.014ZM312.014 268.763V259.399H235.636V268.763V278.127H312.014V268.763ZM235.636 268.763V259.399C227.388 259.399 225.412 258.027 224.931 257.545C224.449 257.064 223.077 255.088 223.077 246.84H213.713H204.349C204.349 255.564 205.452 264.55 211.689 270.787C217.926 277.024 226.912 278.127 235.636 278.127V268.763ZM213.713 246.84H223.077V22.6572H213.713H204.349V246.84H213.713ZM213.713 22.6572H223.077C223.077 14.4087 224.449 12.4333 224.931 11.9519C225.412 11.4704 227.388 10.0976 235.636 10.0976V0.733995V-8.62964C226.912 -8.62964 217.926 -7.52724 211.689 -1.29031C205.452 4.94663 204.349 13.9328 204.349 22.6572H213.713ZM235.636 0.733995V10.0976H379.905V0.733995V-8.62964H235.636V0.733995ZM379.905 0.733995V10.0976C388.154 10.0976 390.129 11.4704 390.611 11.9519C391.092 12.4333 392.465 14.4087 392.465 22.6572H401.828H411.192C411.192 13.9328 410.09 4.94663 403.853 -1.29031C397.616 -7.52724 388.63 -8.62964 379.905 -8.62964V0.733995ZM401.828 22.6572H392.465V179.656H401.828H411.192V22.6572H401.828ZM401.828 179.656V170.292H314.843V179.656V189.019H401.828V179.656ZM314.843 179.656H324.206V78.526H314.843H305.479V179.656H314.843ZM314.843 78.526V69.1624H303.528V78.526V87.8897H314.843V78.526ZM303.528 78.526H294.164V190.971H303.528H312.891V78.526H303.528ZM303.528 190.971V200.335H379.905V190.971V181.607H303.528V190.971ZM379.905 190.971V200.335C388.154 200.335 390.129 201.707 390.611 202.189C391.092 202.67 392.465 204.646 392.465 212.894H401.828H411.192C411.192 204.17 410.09 195.184 403.853 188.947C397.616 182.71 388.63 181.607 379.905 181.607V190.971ZM401.828 212.894H392.465V437.077H401.828H411.192V212.894H401.828ZM401.828 437.077H392.465C392.465 445.325 391.092 447.301 390.611 447.782C390.129 448.264 388.154 449.636 379.905 449.636V459V468.364C388.63 468.364 397.616 467.261 403.853 461.024C410.09 454.787 411.192 445.801 411.192 437.077H401.828ZM379.905 459V449.636H235.636V459V468.364H379.905V459ZM235.636 459V449.636C227.388 449.636 225.412 448.264 224.931 447.782C224.449 447.301 223.077 445.325 223.077 437.077H213.713H204.349C204.349 445.801 205.452 454.787 211.689 461.024C217.926 467.261 226.912 468.364 235.636 468.364V459ZM213.713 437.077H223.077V280.078H213.713H204.349V437.077H213.713ZM213.713 280.078V289.442H300.699V280.078V270.715H213.713V280.078ZM300.699 280.078H291.335V381.208H300.699H310.062V280.078H300.699ZM300.699 381.208V390.572H312.014V381.208V371.844H300.699V381.208ZM312.014 381.208H321.378V268.763H312.014H302.65V381.208H312.014Z" fill="#B84C23" mask="url(#path-1-inside-1_1304_15560)"/>
</svg>
