<svg width="185" height="137" viewBox="0 0 185 137" fill="none" xmlns="http://www.w3.org/2000/svg">
<mask id="path-1-inside-1_1304_15488" fill="white">
<path d="M57.1337 55.368V78.4971H27.7851V113.871H31.2836V82.19H57.1337V137H0.963185V0.94673H57.1337V51.8695H31.2836V24.0758H27.7851V55.368H57.1337ZM91.2716 113.871H94.7701V69.1677H120.62V130.586C120.62 135.445 119.065 137 114.206 137H70.8636C66.0045 137 64.4496 135.445 64.4496 130.586V7.36067C64.4496 2.50163 66.0045 0.94673 70.8636 0.94673H114.206C119.065 0.94673 120.62 2.50163 120.62 7.36067V65.6692H94.7701V24.0758H91.2716V113.871ZM184.107 55.368V78.4971H154.758V113.871H158.257V82.19H184.107V137H127.936V0.94673H184.107V51.8695H158.257V24.0758H154.758V55.368H184.107Z"/>
</mask>
<path d="M57.1337 55.368V78.4971H27.7851V113.871H31.2836V82.19H57.1337V137H0.963185V0.94673H57.1337V51.8695H31.2836V24.0758H27.7851V55.368H57.1337ZM91.2716 113.871H94.7701V69.1677H120.62V130.586C120.62 135.445 119.065 137 114.206 137H70.8636C66.0045 137 64.4496 135.445 64.4496 130.586V7.36067C64.4496 2.50163 66.0045 0.94673 70.8636 0.94673H114.206C119.065 0.94673 120.62 2.50163 120.62 7.36067V65.6692H94.7701V24.0758H91.2716V113.871ZM184.107 55.368V78.4971H154.758V113.871H158.257V82.19H184.107V137H127.936V0.94673H184.107V51.8695H158.257V24.0758H154.758V55.368H184.107Z" fill="white"/>
<path d="M57.1337 55.368H59.7072V52.7946H57.1337V55.368ZM57.1337 78.4971V81.0705H59.7072V78.4971H57.1337ZM27.7851 78.4971V75.9237H25.2117V78.4971H27.7851ZM27.7851 113.871H25.2117V116.444H27.7851V113.871ZM31.2836 113.871V116.444H33.8571V113.871H31.2836ZM31.2836 82.19V79.6165H28.7102V82.19H31.2836ZM57.1337 82.19H59.7072V79.6165H57.1337V82.19ZM57.1337 137V139.573H59.7072V137H57.1337ZM0.963185 137H-1.61025V139.573H0.963185V137ZM0.963185 0.94673V-1.6267H-1.61025V0.94673H0.963185ZM57.1337 0.94673H59.7072V-1.6267H57.1337V0.94673ZM57.1337 51.8695V54.443H59.7072V51.8695H57.1337ZM31.2836 51.8695H28.7102V54.443H31.2836V51.8695ZM31.2836 24.0758H33.8571V21.5024H31.2836V24.0758ZM27.7851 24.0758V21.5024H25.2117V24.0758H27.7851ZM27.7851 55.368H25.2117V57.9415H27.7851V55.368ZM57.1337 55.368H54.5603V78.4971H57.1337H59.7072V55.368H57.1337ZM57.1337 78.4971V75.9237H27.7851V78.4971V81.0705H57.1337V78.4971ZM27.7851 78.4971H25.2117V113.871H27.7851H30.3585V78.4971H27.7851ZM27.7851 113.871V116.444H31.2836V113.871V111.298H27.7851V113.871ZM31.2836 113.871H33.8571V82.19H31.2836H28.7102V113.871H31.2836ZM31.2836 82.19V84.7634H57.1337V82.19V79.6165H31.2836V82.19ZM57.1337 82.19H54.5603V137H57.1337H59.7072V82.19H57.1337ZM57.1337 137V134.427H0.963185V137V139.573H57.1337V137ZM0.963185 137H3.53662V0.94673H0.963185H-1.61025V137H0.963185ZM0.963185 0.94673V3.52016H57.1337V0.94673V-1.6267H0.963185V0.94673ZM57.1337 0.94673H54.5603V51.8695H57.1337H59.7072V0.94673H57.1337ZM57.1337 51.8695V49.2961H31.2836V51.8695V54.443H57.1337V51.8695ZM31.2836 51.8695H33.8571V24.0758H31.2836H28.7102V51.8695H31.2836ZM31.2836 24.0758V21.5024H27.7851V24.0758V26.6492H31.2836V24.0758ZM27.7851 24.0758H25.2117V55.368H27.7851H30.3585V24.0758H27.7851ZM27.7851 55.368V57.9415H57.1337V55.368V52.7946H27.7851V55.368ZM91.2716 113.871H88.6981V116.444H91.2716V113.871ZM94.7701 113.871V116.444H97.3435V113.871H94.7701ZM94.7701 69.1677V66.5943H92.1967V69.1677H94.7701ZM120.62 69.1677H123.194V66.5943H120.62V69.1677ZM120.62 65.6692V68.2426H123.194V65.6692H120.62ZM94.7701 65.6692H92.1967V68.2426H94.7701V65.6692ZM94.7701 24.0758H97.3435V21.5024H94.7701V24.0758ZM91.2716 24.0758V21.5024H88.6981V24.0758H91.2716ZM91.2716 113.871V116.444H94.7701V113.871V111.298H91.2716V113.871ZM94.7701 113.871H97.3435V69.1677H94.7701H92.1967V113.871H94.7701ZM94.7701 69.1677V71.7412H120.62V69.1677V66.5943H94.7701V69.1677ZM120.62 69.1677H118.047V130.586H120.62H123.194V69.1677H120.62ZM120.62 130.586H118.047C118.047 132.897 117.64 133.571 117.416 133.795C117.192 134.02 116.517 134.427 114.206 134.427V137V139.573C116.754 139.573 119.287 139.203 121.055 137.435C122.823 135.667 123.194 133.134 123.194 130.586H120.62ZM114.206 137V134.427H70.8636V137V139.573H114.206V137ZM70.8636 137V134.427C68.5526 134.427 67.8782 134.02 67.6542 133.795C67.4301 133.571 67.0231 132.897 67.0231 130.586H64.4496H61.8762C61.8762 133.134 62.2466 135.667 64.0148 137.435C65.783 139.203 68.3155 139.573 70.8636 139.573V137ZM64.4496 130.586H67.0231V7.36067H64.4496H61.8762V130.586H64.4496ZM64.4496 7.36067H67.0231C67.0231 5.0497 67.4301 4.37529 67.6542 4.15125C67.8782 3.92721 68.5526 3.52016 70.8636 3.52016V0.94673V-1.6267C68.3155 -1.6267 65.783 -1.2563 64.0148 0.511867C62.2466 2.28004 61.8762 4.8126 61.8762 7.36067H64.4496ZM70.8636 0.94673V3.52016H114.206V0.94673V-1.6267H70.8636V0.94673ZM114.206 0.94673V3.52016C116.517 3.52016 117.192 3.92721 117.416 4.15125C117.64 4.37529 118.047 5.0497 118.047 7.36067H120.62H123.194C123.194 4.8126 122.823 2.28004 121.055 0.511868C119.287 -1.2563 116.754 -1.6267 114.206 -1.6267V0.94673ZM120.62 7.36067H118.047V65.6692H120.62H123.194V7.36067H120.62ZM120.62 65.6692V63.0958H94.7701V65.6692V68.2426H120.62V65.6692ZM94.7701 65.6692H97.3435V24.0758H94.7701H92.1967V65.6692H94.7701ZM94.7701 24.0758V21.5024H91.2716V24.0758V26.6492H94.7701V24.0758ZM91.2716 24.0758H88.6981V113.871H91.2716H93.845V24.0758H91.2716ZM184.107 55.368H186.68V52.7946H184.107V55.368ZM184.107 78.4971V81.0705H186.68V78.4971H184.107ZM154.758 78.4971V75.9237H152.185V78.4971H154.758ZM154.758 113.871H152.185V116.444H154.758V113.871ZM158.257 113.871V116.444H160.83V113.871H158.257ZM158.257 82.19V79.6165H155.683V82.19H158.257ZM184.107 82.19H186.68V79.6165H184.107V82.19ZM184.107 137V139.573H186.68V137H184.107ZM127.936 137H125.363V139.573H127.936V137ZM127.936 0.94673V-1.6267H125.363V0.94673H127.936ZM184.107 0.94673H186.68V-1.6267H184.107V0.94673ZM184.107 51.8695V54.443H186.68V51.8695H184.107ZM158.257 51.8695H155.683V54.443H158.257V51.8695ZM158.257 24.0758H160.83V21.5024H158.257V24.0758ZM154.758 24.0758V21.5024H152.185V24.0758H154.758ZM154.758 55.368H152.185V57.9415H154.758V55.368ZM184.107 55.368H181.533V78.4971H184.107H186.68V55.368H184.107ZM184.107 78.4971V75.9237H154.758V78.4971V81.0705H184.107V78.4971ZM154.758 78.4971H152.185V113.871H154.758H157.331V78.4971H154.758ZM154.758 113.871V116.444H158.257V113.871V111.298H154.758V113.871ZM158.257 113.871H160.83V82.19H158.257H155.683V113.871H158.257ZM158.257 82.19V84.7634H184.107V82.19V79.6165H158.257V82.19ZM184.107 82.19H181.533V137H184.107H186.68V82.19H184.107ZM184.107 137V134.427H127.936V137V139.573H184.107V137ZM127.936 137H130.51V0.94673H127.936H125.363V137H127.936ZM127.936 0.94673V3.52016H184.107V0.94673V-1.6267H127.936V0.94673ZM184.107 0.94673H181.533V51.8695H184.107H186.68V0.94673H184.107ZM184.107 51.8695V49.2961H158.257V51.8695V54.443H184.107V51.8695ZM158.257 51.8695H160.83V24.0758H158.257H155.683V51.8695H158.257ZM158.257 24.0758V21.5024H154.758V24.0758V26.6492H158.257V24.0758ZM154.758 24.0758H152.185V55.368H154.758H157.331V24.0758H154.758ZM154.758 55.368V57.9415H184.107V55.368V52.7946H154.758V55.368Z" fill="#D8B36C" mask="url(#path-1-inside-1_1304_15488)"/>
</svg>
