<svg width="185" height="137" viewBox="0 0 185 137" fill="none" xmlns="http://www.w3.org/2000/svg">
<mask id="path-1-inside-1_1304_15498" fill="white">
<path d="M57.1337 55.368V78.4971H27.7851V113.871H31.2836V82.19H57.1337V137H0.963185V0.94673H57.1337V51.8695H31.2836V24.0758H27.7851V55.368H57.1337ZM120.62 55.368V78.4971H91.2716V113.871H94.7701V82.19H120.62V137H64.4496V0.94673H120.62V51.8695H94.7701V24.0758H91.2716V55.368H120.62ZM184.107 55.368V78.4971H154.758V113.871H158.257V82.19H184.107V137H127.936V0.94673H184.107V51.8695H158.257V24.0758H154.758V55.368H184.107Z"/>
</mask>
<path d="M57.1337 55.368V78.4971H27.7851V113.871H31.2836V82.19H57.1337V137H0.963185V0.94673H57.1337V51.8695H31.2836V24.0758H27.7851V55.368H57.1337ZM120.62 55.368V78.4971H91.2716V113.871H94.7701V82.19H120.62V137H64.4496V0.94673H120.62V51.8695H94.7701V24.0758H91.2716V55.368H120.62ZM184.107 55.368V78.4971H154.758V113.871H158.257V82.19H184.107V137H127.936V0.94673H184.107V51.8695H158.257V24.0758H154.758V55.368H184.107Z" fill="white"/>
<path d="M57.1337 55.368H59.7072V52.7946H57.1337V55.368ZM57.1337 78.4971V81.0705H59.7072V78.4971H57.1337ZM27.7851 78.4971V75.9237H25.2117V78.4971H27.7851ZM27.7851 113.871H25.2117V116.444H27.7851V113.871ZM31.2836 113.871V116.444H33.8571V113.871H31.2836ZM31.2836 82.19V79.6165H28.7102V82.19H31.2836ZM57.1337 82.19H59.7072V79.6165H57.1337V82.19ZM57.1337 137V139.573H59.7072V137H57.1337ZM0.963185 137H-1.61025V139.573H0.963185V137ZM0.963185 0.94673V-1.6267H-1.61025V0.94673H0.963185ZM57.1337 0.94673H59.7072V-1.6267H57.1337V0.94673ZM57.1337 51.8695V54.443H59.7072V51.8695H57.1337ZM31.2836 51.8695H28.7102V54.443H31.2836V51.8695ZM31.2836 24.0758H33.8571V21.5024H31.2836V24.0758ZM27.7851 24.0758V21.5024H25.2117V24.0758H27.7851ZM27.7851 55.368H25.2117V57.9415H27.7851V55.368ZM57.1337 55.368H54.5603V78.4971H57.1337H59.7072V55.368H57.1337ZM57.1337 78.4971V75.9237H27.7851V78.4971V81.0705H57.1337V78.4971ZM27.7851 78.4971H25.2117V113.871H27.7851H30.3585V78.4971H27.7851ZM27.7851 113.871V116.444H31.2836V113.871V111.298H27.7851V113.871ZM31.2836 113.871H33.8571V82.19H31.2836H28.7102V113.871H31.2836ZM31.2836 82.19V84.7634H57.1337V82.19V79.6165H31.2836V82.19ZM57.1337 82.19H54.5603V137H57.1337H59.7072V82.19H57.1337ZM57.1337 137V134.427H0.963185V137V139.573H57.1337V137ZM0.963185 137H3.53662V0.94673H0.963185H-1.61025V137H0.963185ZM0.963185 0.94673V3.52016H57.1337V0.94673V-1.6267H0.963185V0.94673ZM57.1337 0.94673H54.5603V51.8695H57.1337H59.7072V0.94673H57.1337ZM57.1337 51.8695V49.2961H31.2836V51.8695V54.443H57.1337V51.8695ZM31.2836 51.8695H33.8571V24.0758H31.2836H28.7102V51.8695H31.2836ZM31.2836 24.0758V21.5024H27.7851V24.0758V26.6492H31.2836V24.0758ZM27.7851 24.0758H25.2117V55.368H27.7851H30.3585V24.0758H27.7851ZM27.7851 55.368V57.9415H57.1337V55.368V52.7946H27.7851V55.368ZM120.62 55.368H123.194V52.7946H120.62V55.368ZM120.62 78.4971V81.0705H123.194V78.4971H120.62ZM91.2716 78.4971V75.9237H88.6981V78.4971H91.2716ZM91.2716 113.871H88.6981V116.444H91.2716V113.871ZM94.7701 113.871V116.444H97.3435V113.871H94.7701ZM94.7701 82.19V79.6165H92.1967V82.19H94.7701ZM120.62 82.19H123.194V79.6165H120.62V82.19ZM120.62 137V139.573H123.194V137H120.62ZM64.4496 137H61.8762V139.573H64.4496V137ZM64.4496 0.94673V-1.6267H61.8762V0.94673H64.4496ZM120.62 0.94673H123.194V-1.6267H120.62V0.94673ZM120.62 51.8695V54.443H123.194V51.8695H120.62ZM94.7701 51.8695H92.1967V54.443H94.7701V51.8695ZM94.7701 24.0758H97.3435V21.5024H94.7701V24.0758ZM91.2716 24.0758V21.5024H88.6981V24.0758H91.2716ZM91.2716 55.368H88.6981V57.9415H91.2716V55.368ZM120.62 55.368H118.047V78.4971H120.62H123.194V55.368H120.62ZM120.62 78.4971V75.9237H91.2716V78.4971V81.0705H120.62V78.4971ZM91.2716 78.4971H88.6981V113.871H91.2716H93.845V78.4971H91.2716ZM91.2716 113.871V116.444H94.7701V113.871V111.298H91.2716V113.871ZM94.7701 113.871H97.3435V82.19H94.7701H92.1967V113.871H94.7701ZM94.7701 82.19V84.7634H120.62V82.19V79.6165H94.7701V82.19ZM120.62 82.19H118.047V137H120.62H123.194V82.19H120.62ZM120.62 137V134.427H64.4496V137V139.573H120.62V137ZM64.4496 137H67.0231V0.94673H64.4496H61.8762V137H64.4496ZM64.4496 0.94673V3.52016H120.62V0.94673V-1.6267H64.4496V0.94673ZM120.62 0.94673H118.047V51.8695H120.62H123.194V0.94673H120.62ZM120.62 51.8695V49.2961H94.7701V51.8695V54.443H120.62V51.8695ZM94.7701 51.8695H97.3435V24.0758H94.7701H92.1967V51.8695H94.7701ZM94.7701 24.0758V21.5024H91.2716V24.0758V26.6492H94.7701V24.0758ZM91.2716 24.0758H88.6981V55.368H91.2716H93.845V24.0758H91.2716ZM91.2716 55.368V57.9415H120.62V55.368V52.7946H91.2716V55.368ZM184.107 55.368H186.68V52.7946H184.107V55.368ZM184.107 78.4971V81.0705H186.68V78.4971H184.107ZM154.758 78.4971V75.9237H152.185V78.4971H154.758ZM154.758 113.871H152.185V116.444H154.758V113.871ZM158.257 113.871V116.444H160.83V113.871H158.257ZM158.257 82.19V79.6165H155.683V82.19H158.257ZM184.107 82.19H186.68V79.6165H184.107V82.19ZM184.107 137V139.573H186.68V137H184.107ZM127.936 137H125.363V139.573H127.936V137ZM127.936 0.94673V-1.6267H125.363V0.94673H127.936ZM184.107 0.94673H186.68V-1.6267H184.107V0.94673ZM184.107 51.8695V54.443H186.68V51.8695H184.107ZM158.257 51.8695H155.683V54.443H158.257V51.8695ZM158.257 24.0758H160.83V21.5024H158.257V24.0758ZM154.758 24.0758V21.5024H152.185V24.0758H154.758ZM154.758 55.368H152.185V57.9415H154.758V55.368ZM184.107 55.368H181.533V78.4971H184.107H186.68V55.368H184.107ZM184.107 78.4971V75.9237H154.758V78.4971V81.0705H184.107V78.4971ZM154.758 78.4971H152.185V113.871H154.758H157.331V78.4971H154.758ZM154.758 113.871V116.444H158.257V113.871V111.298H154.758V113.871ZM158.257 113.871H160.83V82.19H158.257H155.683V113.871H158.257ZM158.257 82.19V84.7634H184.107V82.19V79.6165H158.257V82.19ZM184.107 82.19H181.533V137H184.107H186.68V82.19H184.107ZM184.107 137V134.427H127.936V137V139.573H184.107V137ZM127.936 137H130.51V0.94673H127.936H125.363V137H127.936ZM127.936 0.94673V3.52016H184.107V0.94673V-1.6267H127.936V0.94673ZM184.107 0.94673H181.533V51.8695H184.107H186.68V0.94673H184.107ZM184.107 51.8695V49.2961H158.257V51.8695V54.443H184.107V51.8695ZM158.257 51.8695H160.83V24.0758H158.257H155.683V51.8695H158.257ZM158.257 24.0758V21.5024H154.758V24.0758V26.6492H158.257V24.0758ZM154.758 24.0758H152.185V55.368H154.758H157.331V24.0758H154.758ZM154.758 55.368V57.9415H184.107V55.368V52.7946H154.758V55.368Z" fill="#5D587E" mask="url(#path-1-inside-1_1304_15498)"/>
</svg>
