<svg width="121" height="137" viewBox="0 0 121 137" fill="none" xmlns="http://www.w3.org/2000/svg">
<mask id="path-1-inside-1_1304_15493" fill="white">
<path d="M56.4025 55.368V78.4971H27.0538V113.871H30.5523V82.19H56.4025V137H0.231899V0.94673H56.4025V51.8695H30.5523V24.0758H27.0538V55.368H56.4025ZM90.5403 24.0758V59.2553H94.0388V24.0758H90.5403ZM90.5403 137H63.7184V0.94673H114.447C119.306 0.94673 120.861 2.50163 120.861 7.36067V63.5312C120.861 68.3903 119.306 69.9452 115.03 69.9452H114.058V72.4719H115.03C119.306 72.4719 120.861 74.0268 120.861 78.8858V137H94.0388V82.3843H90.5403V137Z"/>
</mask>
<path d="M56.4025 55.368V78.4971H27.0538V113.871H30.5523V82.19H56.4025V137H0.231899V0.94673H56.4025V51.8695H30.5523V24.0758H27.0538V55.368H56.4025ZM90.5403 24.0758V59.2553H94.0388V24.0758H90.5403ZM90.5403 137H63.7184V0.94673H114.447C119.306 0.94673 120.861 2.50163 120.861 7.36067V63.5312C120.861 68.3903 119.306 69.9452 115.03 69.9452H114.058V72.4719H115.03C119.306 72.4719 120.861 74.0268 120.861 78.8858V137H94.0388V82.3843H90.5403V137Z" fill="white"/>
<path d="M56.4025 55.368H58.9759V52.7946H56.4025V55.368ZM56.4025 78.4971V81.0705H58.9759V78.4971H56.4025ZM27.0538 78.4971V75.9237H24.4804V78.4971H27.0538ZM27.0538 113.871H24.4804V116.444H27.0538V113.871ZM30.5523 113.871V116.444H33.1258V113.871H30.5523ZM30.5523 82.19V79.6165H27.9789V82.19H30.5523ZM56.4025 82.19H58.9759V79.6165H56.4025V82.19ZM56.4025 137V139.573H58.9759V137H56.4025ZM0.231899 137H-2.34153V139.573H0.231899V137ZM0.231899 0.94673V-1.6267H-2.34153V0.94673H0.231899ZM56.4025 0.94673H58.9759V-1.6267H56.4025V0.94673ZM56.4025 51.8695V54.443H58.9759V51.8695H56.4025ZM30.5523 51.8695H27.9789V54.443H30.5523V51.8695ZM30.5523 24.0758H33.1258V21.5024H30.5523V24.0758ZM27.0538 24.0758V21.5024H24.4804V24.0758H27.0538ZM27.0538 55.368H24.4804V57.9415H27.0538V55.368ZM56.4025 55.368H53.829V78.4971H56.4025H58.9759V55.368H56.4025ZM56.4025 78.4971V75.9237H27.0538V78.4971V81.0705H56.4025V78.4971ZM27.0538 78.4971H24.4804V113.871H27.0538H29.6273V78.4971H27.0538ZM27.0538 113.871V116.444H30.5523V113.871V111.298H27.0538V113.871ZM30.5523 113.871H33.1258V82.19H30.5523H27.9789V113.871H30.5523ZM30.5523 82.19V84.7634H56.4025V82.19V79.6165H30.5523V82.19ZM56.4025 82.19H53.829V137H56.4025H58.9759V82.19H56.4025ZM56.4025 137V134.427H0.231899V137V139.573H56.4025V137ZM0.231899 137H2.80533V0.94673H0.231899H-2.34153V137H0.231899ZM0.231899 0.94673V3.52016H56.4025V0.94673V-1.6267H0.231899V0.94673ZM56.4025 0.94673H53.829V51.8695H56.4025H58.9759V0.94673H56.4025ZM56.4025 51.8695V49.2961H30.5523V51.8695V54.443H56.4025V51.8695ZM30.5523 51.8695H33.1258V24.0758H30.5523H27.9789V51.8695H30.5523ZM30.5523 24.0758V21.5024H27.0538V24.0758V26.6492H30.5523V24.0758ZM27.0538 24.0758H24.4804V55.368H27.0538H29.6273V24.0758H27.0538ZM27.0538 55.368V57.9415H56.4025V55.368V52.7946H27.0538V55.368ZM90.5403 24.0758V21.5024H87.9669V24.0758H90.5403ZM90.5403 59.2553H87.9669V61.8287H90.5403V59.2553ZM94.0388 59.2553V61.8287H96.6122V59.2553H94.0388ZM94.0388 24.0758H96.6122V21.5024H94.0388V24.0758ZM90.5403 137V139.573H93.1137V137H90.5403ZM63.7184 137H61.1449V139.573H63.7184V137ZM63.7184 0.94673V-1.6267H61.1449V0.94673H63.7184ZM114.058 69.9452V67.3717H111.485V69.9452H114.058ZM114.058 72.4719H111.485V75.0453H114.058V72.4719ZM120.861 137V139.573H123.434V137H120.861ZM94.0388 137H91.4654V139.573H94.0388V137ZM94.0388 82.3843H96.6122V79.8109H94.0388V82.3843ZM90.5403 82.3843V79.8109H87.9669V82.3843H90.5403ZM90.5403 24.0758H87.9669V59.2553H90.5403H93.1137V24.0758H90.5403ZM90.5403 59.2553V61.8287H94.0388V59.2553V56.6818H90.5403V59.2553ZM94.0388 59.2553H96.6122V24.0758H94.0388H91.4654V59.2553H94.0388ZM94.0388 24.0758V21.5024H90.5403V24.0758V26.6492H94.0388V24.0758ZM90.5403 137V134.427H63.7184V137V139.573H90.5403V137ZM63.7184 137H66.2918V0.94673H63.7184H61.1449V137H63.7184ZM63.7184 0.94673V3.52016H114.447V0.94673V-1.6267H63.7184V0.94673ZM114.447 0.94673V3.52016C116.758 3.52016 117.432 3.92721 117.656 4.15125C117.88 4.37529 118.287 5.0497 118.287 7.36067H120.861H123.434C123.434 4.8126 123.064 2.28004 121.296 0.511868C119.527 -1.2563 116.995 -1.6267 114.447 -1.6267V0.94673ZM120.861 7.36067H118.287V63.5312H120.861H123.434V7.36067H120.861ZM120.861 63.5312H118.287C118.287 65.8339 117.885 66.5698 117.661 66.811C117.494 66.9919 116.977 67.3717 115.03 67.3717V69.9452V72.5186C117.359 72.5186 119.757 72.121 121.436 70.3097C123.059 68.5587 123.434 66.0876 123.434 63.5312H120.861ZM115.03 69.9452V67.3717H114.058V69.9452V72.5186H115.03V69.9452ZM114.058 69.9452H111.485V72.4719H114.058H116.632V69.9452H114.058ZM114.058 72.4719V75.0453H115.03V72.4719V69.8984H114.058V72.4719ZM115.03 72.4719V75.0453C116.977 75.0453 117.494 75.4252 117.661 75.606C117.885 75.8473 118.287 76.5832 118.287 78.8858H120.861H123.434C123.434 76.3294 123.059 73.8583 121.436 72.1074C119.757 70.296 117.359 69.8984 115.03 69.8984V72.4719ZM120.861 78.8858H118.287V137H120.861H123.434V78.8858H120.861ZM120.861 137V134.427H94.0388V137V139.573H120.861V137ZM94.0388 137H96.6122V82.3843H94.0388H91.4654V137H94.0388ZM94.0388 82.3843V79.8109H90.5403V82.3843V84.9578H94.0388V82.3843ZM90.5403 82.3843H87.9669V137H90.5403H93.1137V82.3843H90.5403Z" fill="#FB89AC" mask="url(#path-1-inside-1_1304_15493)"/>
</svg>
