<svg width="215" height="168" viewBox="0 0 215 168" fill="none" xmlns="http://www.w3.org/2000/svg">
<path d="M165.343 1.28418H208.604C210.97 1.28422 212.107 1.6812 212.716 2.29004C213.325 2.89897 213.722 4.03655 213.722 6.40234V165.983H189.519V96.4902H183.458V134.514H160.226V6.40234C160.226 4.03655 160.623 2.89897 161.231 2.29004C161.84 1.68124 162.977 1.28419 165.343 1.28418ZM80.8965 1.28418C83.2618 1.28418 84.3988 1.68131 85.0078 2.29004C85.6167 2.89897 86.0146 4.03655 86.0146 6.40234V134.514H61.8115V21.8018H55.751V134.514H31.5479V21.8018H25.4873V165.983H1.28418V1.28418H80.8965ZM145.26 1.28418C147.625 1.28419 148.762 1.68124 149.371 2.29004C149.98 2.89897 150.377 4.03655 150.377 6.40234V58.5869C150.377 60.9483 149.982 62.1158 149.41 62.7334C148.866 63.3208 147.88 63.7051 145.842 63.7051H143.587V68.7949H145.842C147.88 68.7949 148.866 69.1792 149.41 69.7666C149.982 70.3842 150.377 71.5518 150.377 73.9131V129.396C150.377 131.761 149.98 132.899 149.371 133.508C148.762 134.117 147.625 134.514 145.26 134.514H95.9111V1.28418H145.26ZM120.113 113.996H126.174V76.1201H120.113V113.996ZM183.458 75.7793H189.519V21.8018H183.458V75.7793ZM120.113 55.6035H126.174V21.8018H120.113V55.6035Z" fill="white" stroke="#217868" stroke-width="2.5686"/>
</svg>
