<svg width="215" height="168" viewBox="0 0 215 168" fill="none" xmlns="http://www.w3.org/2000/svg">
<path d="M164.396 1.28418H207.657C210.023 1.28422 211.16 1.68119 211.769 2.29004C212.377 2.89897 212.774 4.03655 212.774 6.40234V165.983H188.571V96.4902H182.511V134.514H159.278V6.40234C159.278 4.03655 159.675 2.89897 160.284 2.29004C160.893 1.68124 162.03 1.28419 164.396 1.28418ZM80.8965 1.28418C83.2618 1.28418 84.3988 1.68131 85.0078 2.29004C85.6167 2.89897 86.0146 4.03655 86.0146 6.40234V134.514H61.8115V21.8018H55.751V134.514H31.5479V21.8018H25.4873V165.983H1.28418V1.28418H80.8965ZM101.028 1.28418H144.29C146.655 1.28422 147.792 1.68119 148.401 2.29004C149.01 2.89897 149.407 4.03655 149.407 6.40234V63.3164H126.174V21.8018H120.113V113.996H126.174V69.377H149.407V129.396C149.407 131.761 149.01 132.899 148.401 133.508C147.792 134.117 146.655 134.514 144.29 134.514H101.028C98.6629 134.514 97.526 134.117 96.917 133.508C96.3081 132.899 95.9111 131.761 95.9111 129.396V6.40234C95.9111 4.03655 96.3081 2.89897 96.917 2.29004C97.526 1.68125 98.6629 1.28419 101.028 1.28418ZM182.511 75.7793H188.571V21.8018H182.511V75.7793Z" fill="white" stroke="#626899" stroke-width="2.5686"/>
</svg>
