<svg width="214" height="135" viewBox="0 0 214 135" fill="none" xmlns="http://www.w3.org/2000/svg">
<mask id="path-1-inside-1_1304_15520" fill="white">
<path d="M27.3303 135H0.743443V0.138875H81.0821C85.8986 0.138875 87.4399 1.68015 87.4399 6.49661V135H60.853V23.0653H57.3851V135H30.7982V23.0653H27.3303V135ZM150.396 54.0833V77.0097H121.304V112.074H124.772V80.6702H150.396V135H94.7173V0.138875H150.396V50.6155H124.772V23.0653H121.304V54.0833H150.396ZM184.234 112.074H187.702V67.7621H213.326V128.642C213.326 133.459 211.785 135 206.968 135H164.005C159.189 135 157.647 133.459 157.647 128.642V6.49661C157.647 1.68015 159.189 0.138875 164.005 0.138875H206.968C211.785 0.138875 213.326 1.68015 213.326 6.49661V64.2942H187.702V23.0653H184.234V112.074Z"/>
</mask>
<path d="M27.3303 135H0.743443V0.138875H81.0821C85.8986 0.138875 87.4399 1.68015 87.4399 6.49661V135H60.853V23.0653H57.3851V135H30.7982V23.0653H27.3303V135ZM150.396 54.0833V77.0097H121.304V112.074H124.772V80.6702H150.396V135H94.7173V0.138875H150.396V50.6155H124.772V23.0653H121.304V54.0833H150.396ZM184.234 112.074H187.702V67.7621H213.326V128.642C213.326 133.459 211.785 135 206.968 135H164.005C159.189 135 157.647 133.459 157.647 128.642V6.49661C157.647 1.68015 159.189 0.138875 164.005 0.138875H206.968C211.785 0.138875 213.326 1.68015 213.326 6.49661V64.2942H187.702V23.0653H184.234V112.074Z" fill="white"/>
<path d="M27.3303 135V137.551H29.8812V135H27.3303ZM0.743443 135H-1.80744V137.551H0.743443V135ZM0.743443 0.138875V-2.41201H-1.80744V0.138875H0.743443ZM87.4399 135V137.551H89.9908V135H87.4399ZM60.853 135H58.3021V137.551H60.853V135ZM60.853 23.0653H63.4039V20.5144H60.853V23.0653ZM57.3851 23.0653V20.5144H54.8342V23.0653H57.3851ZM57.3851 135V137.551H59.936V135H57.3851ZM30.7982 135H28.2473V137.551H30.7982V135ZM30.7982 23.0653H33.3491V20.5144H30.7982V23.0653ZM27.3303 23.0653V20.5144H24.7795V23.0653H27.3303ZM27.3303 135V132.449H0.743443V135V137.551H27.3303V135ZM0.743443 135H3.29433V0.138875H0.743443H-1.80744V135H0.743443ZM0.743443 0.138875V2.68976H81.0821V0.138875V-2.41201H0.743443V0.138875ZM81.0821 0.138875V2.68976C83.3729 2.68976 84.0414 3.09324 84.2634 3.31532C84.4855 3.53739 84.889 4.20589 84.889 6.49661H87.4399H89.9908C89.9908 3.97087 89.6236 1.4605 87.8709 -0.292177C86.1183 -2.04485 83.6079 -2.41201 81.0821 -2.41201V0.138875ZM87.4399 6.49661H84.889V135H87.4399H89.9908V6.49661H87.4399ZM87.4399 135V132.449H60.853V135V137.551H87.4399V135ZM60.853 135H63.4039V23.0653H60.853H58.3021V135H60.853ZM60.853 23.0653V20.5144H57.3851V23.0653V25.6162H60.853V23.0653ZM57.3851 23.0653H54.8342V135H57.3851H59.936V23.0653H57.3851ZM57.3851 135V132.449H30.7982V135V137.551H57.3851V135ZM30.7982 135H33.3491V23.0653H30.7982H28.2473V135H30.7982ZM30.7982 23.0653V20.5144H27.3303V23.0653V25.6162H30.7982V23.0653ZM27.3303 23.0653H24.7795V135H27.3303H29.8812V23.0653H27.3303ZM150.396 54.0833H152.947V51.5324H150.396V54.0833ZM150.396 77.0097V79.5606H152.947V77.0097H150.396ZM121.304 77.0097V74.4588H118.753V77.0097H121.304ZM121.304 112.074H118.753V114.624H121.304V112.074ZM124.772 112.074V114.624H127.323V112.074H124.772ZM124.772 80.6702V78.1194H122.221V80.6702H124.772ZM150.396 80.6702H152.947V78.1194H150.396V80.6702ZM150.396 135V137.551H152.947V135H150.396ZM94.7173 135H92.1664V137.551H94.7173V135ZM94.7173 0.138875V-2.41201H92.1664V0.138875H94.7173ZM150.396 0.138875H152.947V-2.41201H150.396V0.138875ZM150.396 50.6155V53.1664H152.947V50.6155H150.396ZM124.772 50.6155H122.221V53.1664H124.772V50.6155ZM124.772 23.0653H127.323V20.5144H124.772V23.0653ZM121.304 23.0653V20.5144H118.753V23.0653H121.304ZM121.304 54.0833H118.753V56.6342H121.304V54.0833ZM150.396 54.0833H147.845V77.0097H150.396H152.947V54.0833H150.396ZM150.396 77.0097V74.4588H121.304V77.0097V79.5606H150.396V77.0097ZM121.304 77.0097H118.753V112.074H121.304H123.855V77.0097H121.304ZM121.304 112.074V114.624H124.772V112.074V109.523H121.304V112.074ZM124.772 112.074H127.323V80.6702H124.772H122.221V112.074H124.772ZM124.772 80.6702V83.2211H150.396V80.6702V78.1194H124.772V80.6702ZM150.396 80.6702H147.845V135H150.396H152.947V80.6702H150.396ZM150.396 135V132.449H94.7173V135V137.551H150.396V135ZM94.7173 135H97.2681V0.138875H94.7173H92.1664V135H94.7173ZM94.7173 0.138875V2.68976H150.396V0.138875V-2.41201H94.7173V0.138875ZM150.396 0.138875H147.845V50.6155H150.396H152.947V0.138875H150.396ZM150.396 50.6155V48.0646H124.772V50.6155V53.1664H150.396V50.6155ZM124.772 50.6155H127.323V23.0653H124.772H122.221V50.6155H124.772ZM124.772 23.0653V20.5144H121.304V23.0653V25.6162H124.772V23.0653ZM121.304 23.0653H118.753V54.0833H121.304H123.855V23.0653H121.304ZM121.304 54.0833V56.6342H150.396V54.0833V51.5324H121.304V54.0833ZM184.234 112.074H181.683V114.624H184.234V112.074ZM187.702 112.074V114.624H190.253V112.074H187.702ZM187.702 67.7621V65.2112H185.151V67.7621H187.702ZM213.326 67.7621H215.877V65.2112H213.326V67.7621ZM213.326 64.2942V66.8451H215.877V64.2942H213.326ZM187.702 64.2942H185.151V66.8451H187.702V64.2942ZM187.702 23.0653H190.253V20.5144H187.702V23.0653ZM184.234 23.0653V20.5144H181.683V23.0653H184.234ZM184.234 112.074V114.624H187.702V112.074V109.523H184.234V112.074ZM187.702 112.074H190.253V67.7621H187.702H185.151V112.074H187.702ZM187.702 67.7621V70.313H213.326V67.7621V65.2112H187.702V67.7621ZM213.326 67.7621H210.775V128.642H213.326H215.877V67.7621H213.326ZM213.326 128.642H210.775C210.775 130.933 210.371 131.601 210.149 131.824C209.927 132.046 209.259 132.449 206.968 132.449V135V137.551C209.494 137.551 212.004 137.184 213.757 135.431C215.51 133.678 215.877 131.168 215.877 128.642H213.326ZM206.968 135V132.449H164.005V135V137.551H206.968V135ZM164.005 135V132.449C161.714 132.449 161.046 132.046 160.824 131.824C160.602 131.601 160.198 130.933 160.198 128.642H157.647H155.097C155.097 131.168 155.464 133.678 157.216 135.431C158.969 137.184 161.479 137.551 164.005 137.551V135ZM157.647 128.642H160.198V6.49661H157.647H155.097V128.642H157.647ZM157.647 6.49661H160.198C160.198 4.20589 160.602 3.53739 160.824 3.31532C161.046 3.09324 161.714 2.68976 164.005 2.68976V0.138875V-2.41201C161.479 -2.41201 158.969 -2.04485 157.216 -0.292178C155.464 1.4605 155.097 3.97087 155.097 6.49661H157.647ZM164.005 0.138875V2.68976H206.968V0.138875V-2.41201H164.005V0.138875ZM206.968 0.138875V2.68976C209.259 2.68976 209.927 3.09324 210.149 3.31532C210.371 3.53739 210.775 4.20589 210.775 6.49661H213.326H215.877C215.877 3.97087 215.51 1.4605 213.757 -0.292177C212.004 -2.04485 209.494 -2.41201 206.968 -2.41201V0.138875ZM213.326 6.49661H210.775V64.2942H213.326H215.877V6.49661H213.326ZM213.326 64.2942V61.7434H187.702V64.2942V66.8451H213.326V64.2942ZM187.702 64.2942H190.253V23.0653H187.702H185.151V64.2942H187.702ZM187.702 23.0653V20.5144H184.234V23.0653V25.6162H187.702V23.0653ZM184.234 23.0653H181.683V112.074H184.234H186.785V23.0653H184.234Z" fill="#CD9054" mask="url(#path-1-inside-1_1304_15520)"/>
</svg>
